{
	"patcher" : 	{
		"fileversion" : 1,
		"appversion" : 		{
			"major" : 8,
			"minor" : 1,
			"revision" : 3,
			"architecture" : "x64",
			"modernui" : 1
		}
,
		"classnamespace" : "box",
		"rect" : [ 84.0, 129.0, 571.0, 166.0 ],
		"bglocked" : 0,
		"openinpresentation" : 1,
		"default_fontsize" : 12.0,
		"default_fontface" : 0,
		"default_fontname" : "Arial",
		"gridonopen" : 1,
		"gridsize" : [ 15.0, 15.0 ],
		"gridsnaponopen" : 1,
		"objectsnaponopen" : 1,
		"statusbarvisible" : 2,
		"toolbarvisible" : 1,
		"lefttoolbarpinned" : 0,
		"toptoolbarpinned" : 0,
		"righttoolbarpinned" : 0,
		"bottomtoolbarpinned" : 0,
		"toolbars_unpinned_last_save" : 0,
		"tallnewobj" : 0,
		"boxanimatetime" : 200,
		"enablehscroll" : 1,
		"enablevscroll" : 1,
		"devicewidth" : 0.0,
		"description" : "",
		"digest" : "",
		"tags" : "",
		"style" : "",
		"subpatcher_template" : "",
		"boxes" : [ 			{
				"box" : 				{
					"id" : "obj-3",
					"maxclass" : "newobj",
					"numinlets" : 1,
					"numoutlets" : 0,
					"patching_rect" : [ 917.066803812980652, 32.722121357917786, 67.0, 22.0 ],
					"saved_object_attributes" : 					{
						"allwindowsactive" : 0,
						"appicon_mac" : "",
						"appicon_win" : "",
						"audiosupport" : 1,
						"bundleidentifier" : "com.mycompany.myprogram",
						"cantclosetoplevelpatchers" : 1,
						"cefsupport" : 1,
						"copysupport" : 1,
						"database" : 0,
						"extensions" : 1,
						"gensupport" : 0,
						"midisupport" : 1,
						"noloadbangdefeating" : 0,
						"overdrive" : 0,
						"preffilename" : "Max 8 Preferences",
						"searchformissingfiles" : 1,
						"statusvisible" : 1,
						"usesearchpath" : 0
					}
,
					"text" : "standalone"
				}

			}
, 			{
				"box" : 				{
					"fontname" : "Arial Bold",
					"fontsize" : 18.0,
					"id" : "obj-11",
					"maxclass" : "comment",
					"numinlets" : 1,
					"numoutlets" : 0,
					"patching_rect" : [ 158.0, 428.0, 233.0, 27.0 ],
					"presentation" : 1,
					"presentation_rect" : [ 18.180489897727966, 13.686926484107971, 153.0, 27.0 ],
					"text" : "Morse Generator"
				}

			}
, 			{
				"box" : 				{
					"id" : "obj-18",
					"maxclass" : "message",
					"numinlets" : 2,
					"numoutlets" : 1,
					"outlettype" : [ "" ],
					"patching_rect" : [ 794.496270418167114, 69.456164002418518, 70.0, 22.0 ],
					"text" : "Hello World"
				}

			}
, 			{
				"box" : 				{
					"id" : "obj-22",
					"maxclass" : "comment",
					"numinlets" : 1,
					"numoutlets" : 0,
					"patching_rect" : [ 933.066803812980652, 655.713046908378601, 35.0, 20.0 ],
					"presentation" : 1,
					"presentation_rect" : [ 134.201765656471252, 48.186926484107971, 35.0, 20.0 ],
					"text" : "Hz"
				}

			}
, 			{
				"box" : 				{
					"id" : "obj-10",
					"maxclass" : "toggle",
					"numinlets" : 1,
					"numoutlets" : 1,
					"outlettype" : [ "int" ],
					"parameter_enable" : 0,
					"patching_rect" : [ 55.328493595123291, 64.213380932807922, 24.0, 24.0 ],
					"presentation" : 1,
					"presentation_rect" : [ 18.180489897727966, 46.186926484107971, 24.0, 24.0 ]
				}

			}
, 			{
				"box" : 				{
					"id" : "obj-24",
					"maxclass" : "message",
					"numinlets" : 2,
					"numoutlets" : 1,
					"outlettype" : [ "" ],
					"patching_rect" : [ 806.496270418167114, 654.713046908378601, 29.5, 22.0 ],
					"text" : "0"
				}

			}
, 			{
				"box" : 				{
					"id" : "obj-21",
					"maxclass" : "newobj",
					"numinlets" : 1,
					"numoutlets" : 1,
					"outlettype" : [ "bang" ],
					"patching_rect" : [ 806.496270418167114, 614.713046908378601, 58.0, 22.0 ],
					"text" : "loadbang"
				}

			}
, 			{
				"box" : 				{
					"id" : "obj-19",
					"maxclass" : "message",
					"numinlets" : 2,
					"numoutlets" : 1,
					"outlettype" : [ "" ],
					"patching_rect" : [ 894.992540836334229, 654.713046908378601, 29.5, 22.0 ],
					"text" : "440"
				}

			}
, 			{
				"box" : 				{
					"id" : "obj-23",
					"maxclass" : "newobj",
					"numinlets" : 2,
					"numoutlets" : 1,
					"outlettype" : [ "int" ],
					"patching_rect" : [ 806.496270418167114, 771.853566527366638, 29.5, 22.0 ],
					"text" : "+ 1"
				}

			}
, 			{
				"box" : 				{
					"id" : "obj-6",
					"maxclass" : "tab",
					"numinlets" : 1,
					"numoutlets" : 3,
					"outlettype" : [ "int", "", "" ],
					"parameter_enable" : 0,
					"patching_rect" : [ 806.496270418167114, 688.655834317207336, 67.25, 74.0 ],
					"presentation" : 1,
					"presentation_rect" : [ 286.201765656471252, 13.686926484107971, 75.25, 139.94870126247406 ],
					"tabs" : [ "Cycle", "Tri", "Saw", "Rect" ]
				}

			}
, 			{
				"box" : 				{
					"id" : "obj-34",
					"maxclass" : "newobj",
					"numinlets" : 1,
					"numoutlets" : 4,
					"outlettype" : [ "signal", "signal", "signal", "signal" ],
					"patcher" : 					{
						"fileversion" : 1,
						"appversion" : 						{
							"major" : 8,
							"minor" : 1,
							"revision" : 3,
							"architecture" : "x64",
							"modernui" : 1
						}
,
						"classnamespace" : "box",
						"rect" : [ 59.0, 103.0, 640.0, 480.0 ],
						"bglocked" : 0,
						"openinpresentation" : 0,
						"default_fontsize" : 12.0,
						"default_fontface" : 0,
						"default_fontname" : "Arial",
						"gridonopen" : 1,
						"gridsize" : [ 15.0, 15.0 ],
						"gridsnaponopen" : 1,
						"objectsnaponopen" : 1,
						"statusbarvisible" : 2,
						"toolbarvisible" : 1,
						"lefttoolbarpinned" : 0,
						"toptoolbarpinned" : 0,
						"righttoolbarpinned" : 0,
						"bottomtoolbarpinned" : 0,
						"toolbars_unpinned_last_save" : 0,
						"tallnewobj" : 0,
						"boxanimatetime" : 200,
						"enablehscroll" : 1,
						"enablevscroll" : 1,
						"devicewidth" : 0.0,
						"description" : "",
						"digest" : "",
						"tags" : "",
						"style" : "",
						"subpatcher_template" : "",
						"boxes" : [ 							{
								"box" : 								{
									"id" : "obj-16",
									"maxclass" : "newobj",
									"numinlets" : 2,
									"numoutlets" : 1,
									"outlettype" : [ "signal" ],
									"patching_rect" : [ 136.0, 105.5, 37.0, 22.0 ],
									"text" : "saw~"
								}

							}
, 							{
								"box" : 								{
									"id" : "obj-11",
									"maxclass" : "newobj",
									"numinlets" : 2,
									"numoutlets" : 1,
									"outlettype" : [ "signal" ],
									"patching_rect" : [ 50.000006581832906, 105.5, 43.0, 22.0 ],
									"text" : "cycle~"
								}

							}
, 							{
								"box" : 								{
									"id" : "obj-10",
									"maxclass" : "newobj",
									"numinlets" : 3,
									"numoutlets" : 1,
									"outlettype" : [ "signal" ],
									"patching_rect" : [ 94.0, 105.5, 40.0, 22.0 ],
									"text" : "tri~"
								}

							}
, 							{
								"box" : 								{
									"id" : "obj-6",
									"maxclass" : "newobj",
									"numinlets" : 3,
									"numoutlets" : 1,
									"outlettype" : [ "signal" ],
									"patching_rect" : [ 175.0, 105.5, 40.0, 22.0 ],
									"text" : "rect~"
								}

							}
, 							{
								"box" : 								{
									"comment" : "",
									"id" : "obj-26",
									"index" : 1,
									"maxclass" : "inlet",
									"numinlets" : 0,
									"numoutlets" : 1,
									"outlettype" : [ "" ],
									"patching_rect" : [ 50.000006581832906, 42.999969601768498, 30.0, 30.0 ]
								}

							}
, 							{
								"box" : 								{
									"comment" : "",
									"id" : "obj-27",
									"index" : 1,
									"maxclass" : "outlet",
									"numinlets" : 1,
									"numoutlets" : 0,
									"patching_rect" : [ 50.000006581832906, 191.053375601768494, 30.0, 30.0 ]
								}

							}
, 							{
								"box" : 								{
									"comment" : "",
									"id" : "obj-29",
									"index" : 2,
									"maxclass" : "outlet",
									"numinlets" : 1,
									"numoutlets" : 0,
									"patching_rect" : [ 94.000006581832906, 191.053375601768494, 30.0, 30.0 ]
								}

							}
, 							{
								"box" : 								{
									"comment" : "",
									"id" : "obj-30",
									"index" : 3,
									"maxclass" : "outlet",
									"numinlets" : 1,
									"numoutlets" : 0,
									"patching_rect" : [ 136.0, 191.053375601768494, 30.0, 30.0 ]
								}

							}
, 							{
								"box" : 								{
									"comment" : "",
									"id" : "obj-32",
									"index" : 4,
									"maxclass" : "outlet",
									"numinlets" : 1,
									"numoutlets" : 0,
									"patching_rect" : [ 175.0, 191.053375601768494, 30.0, 30.0 ]
								}

							}
 ],
						"lines" : [ 							{
								"patchline" : 								{
									"destination" : [ "obj-29", 0 ],
									"source" : [ "obj-10", 0 ]
								}

							}
, 							{
								"patchline" : 								{
									"destination" : [ "obj-27", 0 ],
									"source" : [ "obj-11", 0 ]
								}

							}
, 							{
								"patchline" : 								{
									"destination" : [ "obj-30", 0 ],
									"source" : [ "obj-16", 0 ]
								}

							}
, 							{
								"patchline" : 								{
									"destination" : [ "obj-10", 0 ],
									"order" : 2,
									"source" : [ "obj-26", 0 ]
								}

							}
, 							{
								"patchline" : 								{
									"destination" : [ "obj-11", 0 ],
									"order" : 3,
									"source" : [ "obj-26", 0 ]
								}

							}
, 							{
								"patchline" : 								{
									"destination" : [ "obj-16", 0 ],
									"order" : 1,
									"source" : [ "obj-26", 0 ]
								}

							}
, 							{
								"patchline" : 								{
									"destination" : [ "obj-6", 0 ],
									"order" : 0,
									"source" : [ "obj-26", 0 ]
								}

							}
, 							{
								"patchline" : 								{
									"destination" : [ "obj-32", 0 ],
									"source" : [ "obj-6", 0 ]
								}

							}
 ]
					}
,
					"patching_rect" : [ 894.996270418167114, 727.800190527366681, 56.0, 22.0 ],
					"saved_object_attributes" : 					{
						"description" : "",
						"digest" : "",
						"globalpatchername" : "",
						"tags" : ""
					}
,
					"text" : "p sig_sel"
				}

			}
, 			{
				"box" : 				{
					"id" : "obj-20",
					"maxclass" : "number",
					"numinlets" : 1,
					"numoutlets" : 2,
					"outlettype" : [ "", "bang" ],
					"parameter_enable" : 0,
					"patching_rect" : [ 894.992540836334229, 688.655834317207336, 50.0, 22.0 ],
					"presentation" : 1,
					"presentation_rect" : [ 82.201765656471252, 47.186926484107971, 50.0, 22.0 ]
				}

			}
, 			{
				"box" : 				{
					"id" : "obj-5",
					"maxclass" : "newobj",
					"numinlets" : 5,
					"numoutlets" : 1,
					"outlettype" : [ "signal" ],
					"patching_rect" : [ 882.746270418167114, 771.853566527366638, 68.0, 22.0 ],
					"text" : "selector~ 4"
				}

			}
, 			{
				"box" : 				{
					"id" : "obj-17",
					"maxclass" : "message",
					"numinlets" : 2,
					"numoutlets" : 1,
					"outlettype" : [ "" ],
					"patching_rect" : [ 1099.985074520111084, 556.483179211616516, 50.0, 22.0 ],
					"text" : "11"
				}

			}
, 			{
				"box" : 				{
					"id" : "obj-14",
					"maxclass" : "comment",
					"numinlets" : 1,
					"numoutlets" : 0,
					"patching_rect" : [ 427.746270418167114, 516.110060214996338, 101.0, 20.0 ],
					"presentation" : 1,
					"presentation_rect" : [ 18.180489897727966, 133.635627746582031, 101.0, 20.0 ],
					"text" : "World"
				}

			}
, 			{
				"box" : 				{
					"id" : "obj-15",
					"maxclass" : "newobj",
					"numinlets" : 1,
					"numoutlets" : 1,
					"outlettype" : [ "" ],
					"patching_rect" : [ 427.746270418167114, 477.110060214996338, 72.0, 22.0 ],
					"text" : "prepend set"
				}

			}
, 			{
				"box" : 				{
					"id" : "obj-7",
					"maxclass" : "comment",
					"numinlets" : 1,
					"numoutlets" : 0,
					"patching_rect" : [ 536.0, 516.110060214996338, 101.0, 20.0 ],
					"presentation" : 1,
					"presentation_rect" : [ 134.201765656471252, 133.635627746582031, 101.0, 20.0 ],
					"text" : "2 / 2"
				}

			}
, 			{
				"box" : 				{
					"id" : "obj-4",
					"maxclass" : "newobj",
					"numinlets" : 1,
					"numoutlets" : 1,
					"outlettype" : [ "" ],
					"patching_rect" : [ 536.0, 477.110060214996338, 72.0, 22.0 ],
					"text" : "prepend set"
				}

			}
, 			{
				"box" : 				{
					"id" : "obj-9",
					"maxclass" : "newobj",
					"numinlets" : 3,
					"numoutlets" : 1,
					"outlettype" : [ "" ],
					"patching_rect" : [ 536.0, 438.110060214996338, 53.0, 22.0 ],
					"text" : "pack i / i"
				}

			}
, 			{
				"box" : 				{
					"id" : "obj-2",
					"maxclass" : "message",
					"numinlets" : 2,
					"numoutlets" : 1,
					"outlettype" : [ "" ],
					"patching_rect" : [ 11.566803812980652, 64.213380932807922, 29.5, 22.0 ],
					"text" : "0"
				}

			}
, 			{
				"box" : 				{
					"id" : "obj-1",
					"maxclass" : "newobj",
					"numinlets" : 1,
					"numoutlets" : 1,
					"outlettype" : [ "bang" ],
					"patching_rect" : [ 11.566803812980652, 25.213380932807922, 58.0, 22.0 ],
					"text" : "loadbang"
				}

			}
, 			{
				"box" : 				{
					"id" : "obj-13",
					"maxclass" : "newobj",
					"numinlets" : 1,
					"numoutlets" : 1,
					"outlettype" : [ "" ],
					"patcher" : 					{
						"fileversion" : 1,
						"appversion" : 						{
							"major" : 8,
							"minor" : 1,
							"revision" : 3,
							"architecture" : "x64",
							"modernui" : 1
						}
,
						"classnamespace" : "box",
						"rect" : [ 0.0, 0.0, 640.0, 480.0 ],
						"bglocked" : 0,
						"openinpresentation" : 0,
						"default_fontsize" : 12.0,
						"default_fontface" : 0,
						"default_fontname" : "Arial",
						"gridonopen" : 1,
						"gridsize" : [ 15.0, 15.0 ],
						"gridsnaponopen" : 1,
						"objectsnaponopen" : 1,
						"statusbarvisible" : 2,
						"toolbarvisible" : 1,
						"lefttoolbarpinned" : 0,
						"toptoolbarpinned" : 0,
						"righttoolbarpinned" : 0,
						"bottomtoolbarpinned" : 0,
						"toolbars_unpinned_last_save" : 0,
						"tallnewobj" : 0,
						"boxanimatetime" : 200,
						"enablehscroll" : 1,
						"enablevscroll" : 1,
						"devicewidth" : 0.0,
						"description" : "",
						"digest" : "",
						"tags" : "",
						"style" : "",
						"subpatcher_template" : "",
						"boxes" : [ 							{
								"box" : 								{
									"id" : "obj-245",
									"maxclass" : "newobj",
									"numinlets" : 1,
									"numoutlets" : 2,
									"outlettype" : [ "", "letter" ],
									"patching_rect" : [ 108.0, 490.0, 48.0, 22.0 ],
									"text" : "t l letter"
								}

							}
, 							{
								"box" : 								{
									"id" : "obj-244",
									"maxclass" : "newobj",
									"numinlets" : 2,
									"numoutlets" : 2,
									"outlettype" : [ "", "" ],
									"patching_rect" : [ 108.0, 451.0, 37.0, 22.0 ],
									"text" : "zl rev"
								}

							}
, 							{
								"box" : 								{
									"id" : "obj-243",
									"maxclass" : "message",
									"numinlets" : 2,
									"numoutlets" : 1,
									"outlettype" : [ "" ],
									"patching_rect" : [ 108.0, 412.0, 39.0, 22.0 ],
									"text" : "45 46"
								}

							}
, 							{
								"box" : 								{
									"id" : "obj-241",
									"maxclass" : "newobj",
									"numinlets" : 1,
									"numoutlets" : 2,
									"outlettype" : [ "bang", "bang" ],
									"patching_rect" : [ 108.0, 373.0, 29.5, 22.0 ],
									"text" : "b"
								}

							}
, 							{
								"box" : 								{
									"id" : "obj-240",
									"maxclass" : "newobj",
									"numinlets" : 2,
									"numoutlets" : 2,
									"outlettype" : [ "", "" ],
									"patching_rect" : [ 108.0, 334.0, 53.0, 22.0 ],
									"text" : "route 48"
								}

							}
, 							{
								"box" : 								{
									"id" : "obj-239",
									"maxclass" : "newobj",
									"numinlets" : 3,
									"numoutlets" : 1,
									"outlettype" : [ "list" ],
									"patching_rect" : [ 108.0, 295.0, 40.0, 22.0 ],
									"text" : "atoi"
								}

							}
, 							{
								"box" : 								{
									"coll_data" : 									{
										"count" : 71,
										"data" : [ 											{
												"key" : "A",
												"value" : [ ".-" ]
											}
, 											{
												"key" : "B",
												"value" : [ "-..." ]
											}
, 											{
												"key" : "C",
												"value" : [ "-.-." ]
											}
, 											{
												"key" : "D",
												"value" : [ "-.." ]
											}
, 											{
												"key" : "E",
												"value" : [ "." ]
											}
, 											{
												"key" : "F",
												"value" : [ "..-." ]
											}
, 											{
												"key" : "G",
												"value" : [ "--." ]
											}
, 											{
												"key" : "H",
												"value" : [ "...." ]
											}
, 											{
												"key" : "I",
												"value" : [ ".." ]
											}
, 											{
												"key" : "J",
												"value" : [ ".---" ]
											}
, 											{
												"key" : "K",
												"value" : [ "-.-" ]
											}
, 											{
												"key" : "L",
												"value" : [ ".-.." ]
											}
, 											{
												"key" : "M",
												"value" : [ "--" ]
											}
, 											{
												"key" : "N",
												"value" : [ 0.0 ]
											}
, 											{
												"key" : "O",
												"value" : [ "---" ]
											}
, 											{
												"key" : "P",
												"value" : [ ".--." ]
											}
, 											{
												"key" : "Q",
												"value" : [ "--.-" ]
											}
, 											{
												"key" : "R",
												"value" : [ ".-." ]
											}
, 											{
												"key" : "S",
												"value" : [ "..." ]
											}
, 											{
												"key" : "T",
												"value" : [ "-" ]
											}
, 											{
												"key" : "U",
												"value" : [ "..-" ]
											}
, 											{
												"key" : "V",
												"value" : [ "...-" ]
											}
, 											{
												"key" : "W",
												"value" : [ ".--" ]
											}
, 											{
												"key" : "X",
												"value" : [ "-..-" ]
											}
, 											{
												"key" : "Y",
												"value" : [ "-.--" ]
											}
, 											{
												"key" : "Z",
												"value" : [ "--.." ]
											}
, 											{
												"key" : "Ä",
												"value" : [ ".-.-" ]
											}
, 											{
												"key" : "Ö",
												"value" : [ "---." ]
											}
, 											{
												"key" : "Ü",
												"value" : [ "..--" ]
											}
, 											{
												"key" : "a",
												"value" : [ ".-" ]
											}
, 											{
												"key" : "b",
												"value" : [ "-..." ]
											}
, 											{
												"key" : "c",
												"value" : [ "-.-." ]
											}
, 											{
												"key" : "d",
												"value" : [ "-.." ]
											}
, 											{
												"key" : "e",
												"value" : [ "." ]
											}
, 											{
												"key" : "f",
												"value" : [ "..-." ]
											}
, 											{
												"key" : "g",
												"value" : [ "--." ]
											}
, 											{
												"key" : "h",
												"value" : [ "...." ]
											}
, 											{
												"key" : "i",
												"value" : [ ".." ]
											}
, 											{
												"key" : "j",
												"value" : [ ".---" ]
											}
, 											{
												"key" : "k",
												"value" : [ "-.-" ]
											}
, 											{
												"key" : "l",
												"value" : [ ".-.." ]
											}
, 											{
												"key" : "m",
												"value" : [ "--" ]
											}
, 											{
												"key" : "n",
												"value" : [ 0.0 ]
											}
, 											{
												"key" : "o",
												"value" : [ "---" ]
											}
, 											{
												"key" : "p",
												"value" : [ ".--." ]
											}
, 											{
												"key" : "q",
												"value" : [ "--.-" ]
											}
, 											{
												"key" : "r",
												"value" : [ ".-." ]
											}
, 											{
												"key" : "s",
												"value" : [ "..." ]
											}
, 											{
												"key" : "t",
												"value" : [ "-" ]
											}
, 											{
												"key" : "u",
												"value" : [ "..-" ]
											}
, 											{
												"key" : "v",
												"value" : [ "...-" ]
											}
, 											{
												"key" : "w",
												"value" : [ ".--" ]
											}
, 											{
												"key" : "x",
												"value" : [ "-..-" ]
											}
, 											{
												"key" : "y",
												"value" : [ "-.--" ]
											}
, 											{
												"key" : "z",
												"value" : [ "--.." ]
											}
, 											{
												"key" : ".",
												"value" : [ ".-.-.-" ]
											}
, 											{
												"key" : ":",
												"value" : [ "---..." ]
											}
, 											{
												"key" : "ä",
												"value" : [ ".-.-" ]
											}
, 											{
												"key" : "ö",
												"value" : [ "---." ]
											}
, 											{
												"key" : "ü",
												"value" : [ "..--" ]
											}
, 											{
												"key" : "@",
												"value" : [ ".--.-." ]
											}
, 											{
												"key" : 48,
												"value" : [ "-----" ]
											}
, 											{
												"key" : 49,
												"value" : [ ".----" ]
											}
, 											{
												"key" : 50,
												"value" : [ "..---" ]
											}
, 											{
												"key" : 51,
												"value" : [ "...--" ]
											}
, 											{
												"key" : 52,
												"value" : [ "....-" ]
											}
, 											{
												"key" : 53,
												"value" : [ "....." ]
											}
, 											{
												"key" : 54,
												"value" : [ "-...." ]
											}
, 											{
												"key" : 55,
												"value" : [ "--..." ]
											}
, 											{
												"key" : 56,
												"value" : [ "---.." ]
											}
, 											{
												"key" : 57,
												"value" : [ "----." ]
											}
 ]
									}
,
									"id" : "obj-238",
									"maxclass" : "newobj",
									"numinlets" : 1,
									"numoutlets" : 4,
									"outlettype" : [ "", "", "", "" ],
									"patching_rect" : [ 108.0, 256.0, 93.0, 22.0 ],
									"saved_object_attributes" : 									{
										"embed" : 1,
										"precision" : 6
									}
,
									"text" : "coll morse-code"
								}

							}
, 							{
								"box" : 								{
									"id" : "obj-235",
									"maxclass" : "newobj",
									"numinlets" : 3,
									"numoutlets" : 1,
									"outlettype" : [ "int" ],
									"patching_rect" : [ 152.0, 217.0, 40.0, 22.0 ],
									"text" : "itoa"
								}

							}
, 							{
								"box" : 								{
									"id" : "obj-234",
									"maxclass" : "newobj",
									"numinlets" : 3,
									"numoutlets" : 2,
									"outlettype" : [ "int", "int" ],
									"patching_rect" : [ 108.0, 178.0, 63.0, 22.0 ],
									"text" : "split 48 57"
								}

							}
, 							{
								"box" : 								{
									"id" : "obj-229",
									"maxclass" : "newobj",
									"numinlets" : 1,
									"numoutlets" : 1,
									"outlettype" : [ "" ],
									"patching_rect" : [ 50.0, 529.0, 25.0, 22.0 ],
									"text" : "iter"
								}

							}
, 							{
								"box" : 								{
									"id" : "obj-228",
									"maxclass" : "newobj",
									"numinlets" : 1,
									"numoutlets" : 1,
									"outlettype" : [ "word" ],
									"patching_rect" : [ 50.0, 178.0, 41.0, 22.0 ],
									"text" : "t word"
								}

							}
, 							{
								"box" : 								{
									"id" : "obj-227",
									"maxclass" : "newobj",
									"numinlets" : 2,
									"numoutlets" : 2,
									"outlettype" : [ "bang", "" ],
									"patching_rect" : [ 50.0, 139.0, 57.0, 22.0 ],
									"text" : "select 32"
								}

							}
, 							{
								"box" : 								{
									"id" : "obj-226",
									"maxclass" : "newobj",
									"numinlets" : 1,
									"numoutlets" : 1,
									"outlettype" : [ "" ],
									"patching_rect" : [ 50.0, 100.0, 25.0, 22.0 ],
									"text" : "iter"
								}

							}
, 							{
								"box" : 								{
									"comment" : "",
									"id" : "obj-10",
									"index" : 1,
									"maxclass" : "inlet",
									"numinlets" : 0,
									"numoutlets" : 1,
									"outlettype" : [ "" ],
									"patching_rect" : [ 49.999999187019341, 39.999996997581491, 30.0, 30.0 ]
								}

							}
, 							{
								"box" : 								{
									"comment" : "",
									"id" : "obj-11",
									"index" : 1,
									"maxclass" : "outlet",
									"numinlets" : 1,
									"numoutlets" : 0,
									"patching_rect" : [ 49.999999187019341, 611.000012997581507, 30.0, 30.0 ]
								}

							}
 ],
						"lines" : [ 							{
								"patchline" : 								{
									"destination" : [ "obj-226", 0 ],
									"source" : [ "obj-10", 0 ]
								}

							}
, 							{
								"patchline" : 								{
									"destination" : [ "obj-227", 0 ],
									"midpoints" : [ 59.5, 124.55129873752594, 59.5, 124.55129873752594 ],
									"source" : [ "obj-226", 0 ]
								}

							}
, 							{
								"patchline" : 								{
									"destination" : [ "obj-228", 0 ],
									"midpoints" : [ 59.5, 163.55129873752594, 59.5, 163.55129873752594 ],
									"source" : [ "obj-227", 0 ]
								}

							}
, 							{
								"patchline" : 								{
									"destination" : [ "obj-234", 0 ],
									"midpoints" : [ 97.5, 163.55129873752594, 117.5, 163.55129873752594 ],
									"source" : [ "obj-227", 1 ]
								}

							}
, 							{
								"patchline" : 								{
									"destination" : [ "obj-229", 0 ],
									"midpoints" : [ 59.5, 201.05129873752594, 59.5, 201.05129873752594 ],
									"source" : [ "obj-228", 0 ]
								}

							}
, 							{
								"patchline" : 								{
									"destination" : [ "obj-11", 0 ],
									"source" : [ "obj-229", 0 ]
								}

							}
, 							{
								"patchline" : 								{
									"destination" : [ "obj-235", 0 ],
									"midpoints" : [ 161.5, 202.55129873752594, 161.5, 202.55129873752594 ],
									"source" : [ "obj-234", 1 ]
								}

							}
, 							{
								"patchline" : 								{
									"destination" : [ "obj-238", 0 ],
									"midpoints" : [ 117.5, 202.55129873752594, 117.5, 202.55129873752594 ],
									"source" : [ "obj-234", 0 ]
								}

							}
, 							{
								"patchline" : 								{
									"destination" : [ "obj-238", 0 ],
									"midpoints" : [ 161.5, 247.0, 117.5, 247.0 ],
									"source" : [ "obj-235", 0 ]
								}

							}
, 							{
								"patchline" : 								{
									"destination" : [ "obj-239", 0 ],
									"midpoints" : [ 117.5, 280.55129873752594, 117.5, 280.55129873752594 ],
									"source" : [ "obj-238", 0 ]
								}

							}
, 							{
								"patchline" : 								{
									"destination" : [ "obj-240", 0 ],
									"midpoints" : [ 117.5, 319.55129873752594, 117.5, 319.55129873752594 ],
									"source" : [ "obj-239", 0 ]
								}

							}
, 							{
								"patchline" : 								{
									"destination" : [ "obj-241", 0 ],
									"midpoints" : [ 117.5, 357.05129873752594, 117.5, 357.05129873752594 ],
									"source" : [ "obj-240", 0 ]
								}

							}
, 							{
								"patchline" : 								{
									"destination" : [ "obj-244", 0 ],
									"midpoints" : [ 151.5, 444.05129873752594, 117.5, 444.05129873752594 ],
									"source" : [ "obj-240", 1 ]
								}

							}
, 							{
								"patchline" : 								{
									"destination" : [ "obj-243", 0 ],
									"midpoints" : [ 117.5, 396.05129873752594, 117.5, 396.05129873752594 ],
									"source" : [ "obj-241", 0 ]
								}

							}
, 							{
								"patchline" : 								{
									"destination" : [ "obj-244", 0 ],
									"midpoints" : [ 117.5, 435.05129873752594, 117.5, 435.05129873752594 ],
									"source" : [ "obj-243", 0 ]
								}

							}
, 							{
								"patchline" : 								{
									"destination" : [ "obj-245", 0 ],
									"midpoints" : [ 117.5, 474.05129873752594, 117.5, 474.05129873752594 ],
									"source" : [ "obj-244", 0 ]
								}

							}
, 							{
								"patchline" : 								{
									"destination" : [ "obj-229", 0 ],
									"midpoints" : [ 146.5, 520.0, 59.5, 520.0 ],
									"source" : [ "obj-245", 1 ]
								}

							}
, 							{
								"patchline" : 								{
									"destination" : [ "obj-229", 0 ],
									"midpoints" : [ 117.5, 520.0, 59.5, 520.0 ],
									"source" : [ "obj-245", 0 ]
								}

							}
 ]
					}
,
					"patching_rect" : [ 130.566803812980652, 243.110060214996338, 101.0, 22.0 ],
					"saved_object_attributes" : 					{
						"description" : "",
						"digest" : "",
						"globalpatchername" : "",
						"tags" : ""
					}
,
					"text" : "p integers2morse"
				}

			}
, 			{
				"box" : 				{
					"id" : "obj-8",
					"maxclass" : "newobj",
					"numinlets" : 1,
					"numoutlets" : 1,
					"outlettype" : [ "" ],
					"patcher" : 					{
						"fileversion" : 1,
						"appversion" : 						{
							"major" : 8,
							"minor" : 1,
							"revision" : 3,
							"architecture" : "x64",
							"modernui" : 1
						}
,
						"classnamespace" : "box",
						"rect" : [ 1242.0, 115.0, 640.0, 480.0 ],
						"bglocked" : 0,
						"openinpresentation" : 0,
						"default_fontsize" : 12.0,
						"default_fontface" : 0,
						"default_fontname" : "Arial",
						"gridonopen" : 1,
						"gridsize" : [ 15.0, 15.0 ],
						"gridsnaponopen" : 1,
						"objectsnaponopen" : 1,
						"statusbarvisible" : 2,
						"toolbarvisible" : 1,
						"lefttoolbarpinned" : 0,
						"toptoolbarpinned" : 0,
						"righttoolbarpinned" : 0,
						"bottomtoolbarpinned" : 0,
						"toolbars_unpinned_last_save" : 0,
						"tallnewobj" : 0,
						"boxanimatetime" : 200,
						"enablehscroll" : 1,
						"enablevscroll" : 1,
						"devicewidth" : 0.0,
						"description" : "",
						"digest" : "",
						"tags" : "",
						"style" : "",
						"subpatcher_template" : "",
						"boxes" : [ 							{
								"box" : 								{
									"id" : "obj-1",
									"maxclass" : "newobj",
									"numinlets" : 1,
									"numoutlets" : 1,
									"outlettype" : [ "" ],
									"patching_rect" : [ 50.0, 269.0, 94.0, 22.0 ],
									"saved_object_attributes" : 									{
										"filename" : "__spacedel.js",
										"parameter_enable" : 0
									}
,
									"text" : "js __spacedel.js"
								}

							}
, 							{
								"box" : 								{
									"id" : "obj-161",
									"maxclass" : "newobj",
									"numinlets" : 8,
									"numoutlets" : 1,
									"outlettype" : [ "" ],
									"patching_rect" : [ 50.0, 228.027015209197998, 470.0, 22.0 ],
									"text" : "pack 0 0 0 0 0 0 0 0"
								}

							}
, 							{
								"box" : 								{
									"fontname" : "Arial",
									"fontsize" : 12.0,
									"id" : "obj-24",
									"maxclass" : "newobj",
									"numinlets" : 2,
									"numoutlets" : 1,
									"outlettype" : [ "int" ],
									"patching_rect" : [ 50.0, 133.0, 35.0, 22.0 ],
									"text" : ">> 7"
								}

							}
, 							{
								"box" : 								{
									"fontname" : "Arial",
									"fontsize" : 12.0,
									"id" : "obj-25",
									"maxclass" : "number",
									"numinlets" : 1,
									"numoutlets" : 2,
									"outlettype" : [ "", "bang" ],
									"parameter_enable" : 0,
									"patching_rect" : [ 50.0, 166.0, 50.0, 22.0 ]
								}

							}
, 							{
								"box" : 								{
									"fontname" : "Arial",
									"fontsize" : 12.0,
									"id" : "obj-26",
									"maxclass" : "newobj",
									"numinlets" : 2,
									"numoutlets" : 1,
									"outlettype" : [ "int" ],
									"patching_rect" : [ 50.0, 100.0, 42.0, 22.0 ],
									"text" : "& 128"
								}

							}
, 							{
								"box" : 								{
									"fontname" : "Arial",
									"fontsize" : 12.0,
									"id" : "obj-197",
									"maxclass" : "newobj",
									"numinlets" : 2,
									"numoutlets" : 1,
									"outlettype" : [ "int" ],
									"patching_rect" : [ 114.428571428571558, 133.0, 35.0, 22.0 ],
									"text" : ">> 6"
								}

							}
, 							{
								"box" : 								{
									"fontname" : "Arial",
									"fontsize" : 12.0,
									"id" : "obj-22",
									"maxclass" : "number",
									"numinlets" : 1,
									"numoutlets" : 2,
									"outlettype" : [ "", "bang" ],
									"parameter_enable" : 0,
									"patching_rect" : [ 114.428571428571558, 166.0, 50.0, 22.0 ]
								}

							}
, 							{
								"box" : 								{
									"fontname" : "Arial",
									"fontsize" : 12.0,
									"id" : "obj-23",
									"maxclass" : "newobj",
									"numinlets" : 2,
									"numoutlets" : 1,
									"outlettype" : [ "int" ],
									"patching_rect" : [ 114.428571428571558, 100.0, 35.0, 22.0 ],
									"text" : "& 64"
								}

							}
, 							{
								"box" : 								{
									"fontname" : "Arial",
									"fontsize" : 12.0,
									"id" : "obj-18",
									"maxclass" : "newobj",
									"numinlets" : 2,
									"numoutlets" : 1,
									"outlettype" : [ "int" ],
									"patching_rect" : [ 179.0, 133.0, 35.0, 22.0 ],
									"text" : ">> 5"
								}

							}
, 							{
								"box" : 								{
									"fontname" : "Arial",
									"fontsize" : 12.0,
									"id" : "obj-20",
									"maxclass" : "number",
									"numinlets" : 1,
									"numoutlets" : 2,
									"outlettype" : [ "", "bang" ],
									"parameter_enable" : 0,
									"patching_rect" : [ 179.0, 166.0, 50.0, 22.0 ]
								}

							}
, 							{
								"box" : 								{
									"fontname" : "Arial",
									"fontsize" : 12.0,
									"id" : "obj-27",
									"maxclass" : "newobj",
									"numinlets" : 2,
									"numoutlets" : 1,
									"outlettype" : [ "int" ],
									"patching_rect" : [ 179.0, 100.0, 35.0, 22.0 ],
									"text" : "& 32"
								}

							}
, 							{
								"box" : 								{
									"fontname" : "Arial",
									"fontsize" : 12.0,
									"id" : "obj-15",
									"maxclass" : "newobj",
									"numinlets" : 2,
									"numoutlets" : 1,
									"outlettype" : [ "int" ],
									"patching_rect" : [ 243.0, 133.0, 35.0, 22.0 ],
									"text" : ">> 4"
								}

							}
, 							{
								"box" : 								{
									"fontname" : "Arial",
									"fontsize" : 12.0,
									"id" : "obj-16",
									"maxclass" : "number",
									"numinlets" : 1,
									"numoutlets" : 2,
									"outlettype" : [ "", "bang" ],
									"parameter_enable" : 0,
									"patching_rect" : [ 243.0, 166.0, 50.0, 22.0 ]
								}

							}
, 							{
								"box" : 								{
									"fontname" : "Arial",
									"fontsize" : 12.0,
									"id" : "obj-17",
									"maxclass" : "newobj",
									"numinlets" : 2,
									"numoutlets" : 1,
									"outlettype" : [ "int" ],
									"patching_rect" : [ 243.0, 100.0, 35.0, 22.0 ],
									"text" : "& 16"
								}

							}
, 							{
								"box" : 								{
									"fontname" : "Arial",
									"fontsize" : 12.0,
									"id" : "obj-8",
									"maxclass" : "newobj",
									"numinlets" : 2,
									"numoutlets" : 1,
									"outlettype" : [ "int" ],
									"patching_rect" : [ 308.0, 133.0, 35.0, 22.0 ],
									"text" : ">> 3"
								}

							}
, 							{
								"box" : 								{
									"fontname" : "Arial",
									"fontsize" : 12.0,
									"id" : "obj-13",
									"maxclass" : "number",
									"numinlets" : 1,
									"numoutlets" : 2,
									"outlettype" : [ "", "bang" ],
									"parameter_enable" : 0,
									"patching_rect" : [ 308.0, 166.0, 50.0, 22.0 ]
								}

							}
, 							{
								"box" : 								{
									"fontname" : "Arial",
									"fontsize" : 12.0,
									"id" : "obj-14",
									"maxclass" : "newobj",
									"numinlets" : 2,
									"numoutlets" : 1,
									"outlettype" : [ "int" ],
									"patching_rect" : [ 308.0, 100.0, 32.5, 22.0 ],
									"text" : "& 8"
								}

							}
, 							{
								"box" : 								{
									"fontname" : "Arial",
									"fontsize" : 12.0,
									"id" : "obj-10",
									"maxclass" : "newobj",
									"numinlets" : 2,
									"numoutlets" : 1,
									"outlettype" : [ "int" ],
									"patching_rect" : [ 372.0, 133.0, 35.0, 22.0 ],
									"text" : ">> 2"
								}

							}
, 							{
								"box" : 								{
									"fontname" : "Arial",
									"fontsize" : 12.0,
									"id" : "obj-198",
									"maxclass" : "number",
									"numinlets" : 1,
									"numoutlets" : 2,
									"outlettype" : [ "", "bang" ],
									"parameter_enable" : 0,
									"patching_rect" : [ 372.0, 166.0, 50.0, 22.0 ]
								}

							}
, 							{
								"box" : 								{
									"fontname" : "Arial",
									"fontsize" : 12.0,
									"id" : "obj-11",
									"maxclass" : "newobj",
									"numinlets" : 2,
									"numoutlets" : 1,
									"outlettype" : [ "int" ],
									"patching_rect" : [ 372.0, 100.0, 32.5, 22.0 ],
									"text" : "& 4"
								}

							}
, 							{
								"box" : 								{
									"fontname" : "Arial",
									"fontsize" : 12.0,
									"id" : "obj-21",
									"maxclass" : "newobj",
									"numinlets" : 2,
									"numoutlets" : 1,
									"outlettype" : [ "int" ],
									"patching_rect" : [ 437.0, 133.0, 35.0, 22.0 ],
									"text" : ">> 1"
								}

							}
, 							{
								"box" : 								{
									"fontname" : "Arial",
									"fontsize" : 12.0,
									"id" : "obj-29",
									"maxclass" : "number",
									"numinlets" : 1,
									"numoutlets" : 2,
									"outlettype" : [ "", "bang" ],
									"parameter_enable" : 0,
									"patching_rect" : [ 437.0, 166.0, 50.0, 22.0 ]
								}

							}
, 							{
								"box" : 								{
									"fontname" : "Arial",
									"fontsize" : 12.0,
									"id" : "obj-30",
									"maxclass" : "newobj",
									"numinlets" : 2,
									"numoutlets" : 1,
									"outlettype" : [ "int" ],
									"patching_rect" : [ 437.0, 100.0, 32.5, 22.0 ],
									"text" : "& 2"
								}

							}
, 							{
								"box" : 								{
									"fontname" : "Arial",
									"fontsize" : 12.0,
									"id" : "obj-199",
									"maxclass" : "number",
									"numinlets" : 1,
									"numoutlets" : 2,
									"outlettype" : [ "", "bang" ],
									"parameter_enable" : 0,
									"patching_rect" : [ 501.0, 166.0, 50.0, 22.0 ]
								}

							}
, 							{
								"box" : 								{
									"fontname" : "Arial",
									"fontsize" : 12.0,
									"id" : "obj-9",
									"maxclass" : "newobj",
									"numinlets" : 2,
									"numoutlets" : 1,
									"outlettype" : [ "int" ],
									"patching_rect" : [ 501.0, 100.0, 32.5, 22.0 ],
									"text" : "& 1"
								}

							}
, 							{
								"box" : 								{
									"comment" : "",
									"id" : "obj-6",
									"index" : 1,
									"maxclass" : "inlet",
									"numinlets" : 0,
									"numoutlets" : 1,
									"outlettype" : [ "" ],
									"patching_rect" : [ 269.553585077075923, 39.999996997581491, 30.0, 30.0 ]
								}

							}
, 							{
								"box" : 								{
									"comment" : "",
									"id" : "obj-7",
									"index" : 1,
									"maxclass" : "outlet",
									"numinlets" : 1,
									"numoutlets" : 0,
									"patching_rect" : [ 49.999996077075934, 310.027020997581474, 30.0, 30.0 ]
								}

							}
 ],
						"lines" : [ 							{
								"patchline" : 								{
									"destination" : [ "obj-7", 0 ],
									"source" : [ "obj-1", 0 ]
								}

							}
, 							{
								"patchline" : 								{
									"destination" : [ "obj-198", 0 ],
									"source" : [ "obj-10", 0 ]
								}

							}
, 							{
								"patchline" : 								{
									"destination" : [ "obj-10", 0 ],
									"source" : [ "obj-11", 0 ]
								}

							}
, 							{
								"patchline" : 								{
									"destination" : [ "obj-161", 4 ],
									"source" : [ "obj-13", 0 ]
								}

							}
, 							{
								"patchline" : 								{
									"destination" : [ "obj-8", 0 ],
									"source" : [ "obj-14", 0 ]
								}

							}
, 							{
								"patchline" : 								{
									"destination" : [ "obj-16", 0 ],
									"source" : [ "obj-15", 0 ]
								}

							}
, 							{
								"patchline" : 								{
									"destination" : [ "obj-161", 3 ],
									"source" : [ "obj-16", 0 ]
								}

							}
, 							{
								"patchline" : 								{
									"destination" : [ "obj-1", 0 ],
									"source" : [ "obj-161", 0 ]
								}

							}
, 							{
								"patchline" : 								{
									"destination" : [ "obj-15", 0 ],
									"source" : [ "obj-17", 0 ]
								}

							}
, 							{
								"patchline" : 								{
									"destination" : [ "obj-20", 0 ],
									"source" : [ "obj-18", 0 ]
								}

							}
, 							{
								"patchline" : 								{
									"destination" : [ "obj-22", 0 ],
									"source" : [ "obj-197", 0 ]
								}

							}
, 							{
								"patchline" : 								{
									"destination" : [ "obj-161", 5 ],
									"source" : [ "obj-198", 0 ]
								}

							}
, 							{
								"patchline" : 								{
									"destination" : [ "obj-161", 7 ],
									"source" : [ "obj-199", 0 ]
								}

							}
, 							{
								"patchline" : 								{
									"destination" : [ "obj-161", 2 ],
									"source" : [ "obj-20", 0 ]
								}

							}
, 							{
								"patchline" : 								{
									"destination" : [ "obj-29", 0 ],
									"source" : [ "obj-21", 0 ]
								}

							}
, 							{
								"patchline" : 								{
									"destination" : [ "obj-161", 1 ],
									"source" : [ "obj-22", 0 ]
								}

							}
, 							{
								"patchline" : 								{
									"destination" : [ "obj-197", 0 ],
									"source" : [ "obj-23", 0 ]
								}

							}
, 							{
								"patchline" : 								{
									"destination" : [ "obj-25", 0 ],
									"source" : [ "obj-24", 0 ]
								}

							}
, 							{
								"patchline" : 								{
									"destination" : [ "obj-161", 0 ],
									"source" : [ "obj-25", 0 ]
								}

							}
, 							{
								"patchline" : 								{
									"destination" : [ "obj-24", 0 ],
									"source" : [ "obj-26", 0 ]
								}

							}
, 							{
								"patchline" : 								{
									"destination" : [ "obj-18", 0 ],
									"source" : [ "obj-27", 0 ]
								}

							}
, 							{
								"patchline" : 								{
									"destination" : [ "obj-161", 6 ],
									"source" : [ "obj-29", 0 ]
								}

							}
, 							{
								"patchline" : 								{
									"destination" : [ "obj-21", 0 ],
									"source" : [ "obj-30", 0 ]
								}

							}
, 							{
								"patchline" : 								{
									"destination" : [ "obj-11", 0 ],
									"order" : 2,
									"source" : [ "obj-6", 0 ]
								}

							}
, 							{
								"patchline" : 								{
									"destination" : [ "obj-14", 0 ],
									"order" : 3,
									"source" : [ "obj-6", 0 ]
								}

							}
, 							{
								"patchline" : 								{
									"destination" : [ "obj-17", 0 ],
									"order" : 4,
									"source" : [ "obj-6", 0 ]
								}

							}
, 							{
								"patchline" : 								{
									"destination" : [ "obj-23", 0 ],
									"order" : 6,
									"source" : [ "obj-6", 0 ]
								}

							}
, 							{
								"patchline" : 								{
									"destination" : [ "obj-26", 0 ],
									"order" : 7,
									"source" : [ "obj-6", 0 ]
								}

							}
, 							{
								"patchline" : 								{
									"destination" : [ "obj-27", 0 ],
									"order" : 5,
									"source" : [ "obj-6", 0 ]
								}

							}
, 							{
								"patchline" : 								{
									"destination" : [ "obj-30", 0 ],
									"order" : 1,
									"source" : [ "obj-6", 0 ]
								}

							}
, 							{
								"patchline" : 								{
									"destination" : [ "obj-9", 0 ],
									"order" : 0,
									"source" : [ "obj-6", 0 ]
								}

							}
, 							{
								"patchline" : 								{
									"destination" : [ "obj-13", 0 ],
									"source" : [ "obj-8", 0 ]
								}

							}
, 							{
								"patchline" : 								{
									"destination" : [ "obj-199", 0 ],
									"source" : [ "obj-9", 0 ]
								}

							}
 ],
						"styles" : [ 							{
								"name" : "AudioStatus_Menu",
								"default" : 								{
									"bgfillcolor" : 									{
										"type" : "color",
										"color" : [ 0.294118, 0.313726, 0.337255, 1 ],
										"color1" : [ 0.454902, 0.462745, 0.482353, 0.0 ],
										"color2" : [ 0.290196, 0.309804, 0.301961, 1.0 ],
										"angle" : 270.0,
										"proportion" : 0.39,
										"autogradient" : 0
									}

								}
,
								"parentstyle" : "",
								"multi" : 0
							}
, 							{
								"name" : "newobjCyan-1",
								"default" : 								{
									"accentcolor" : [ 0.022882, 0.848654, 0.85423, 1.0 ]
								}
,
								"parentstyle" : "",
								"multi" : 0
							}
, 							{
								"name" : "newobjMagenta-1",
								"default" : 								{
									"accentcolor" : [ 0.840663, 0.060168, 0.769195, 1.0 ]
								}
,
								"parentstyle" : "",
								"multi" : 0
							}
, 							{
								"name" : "newobjRed-1",
								"default" : 								{
									"accentcolor" : [ 0.784314, 0.145098, 0.023529, 1.0 ]
								}
,
								"parentstyle" : "",
								"multi" : 0
							}
, 							{
								"name" : "newobjYellow-1",
								"default" : 								{
									"fontsize" : [ 12.059008 ],
									"accentcolor" : [ 0.82517, 0.78181, 0.059545, 1.0 ]
								}
,
								"parentstyle" : "",
								"multi" : 0
							}
, 							{
								"name" : "numberB-1",
								"default" : 								{
									"accentcolor" : [ 0.011765, 0.396078, 0.752941, 1.0 ]
								}
,
								"parentstyle" : "",
								"multi" : 0
							}
, 							{
								"name" : "numberG-1",
								"default" : 								{
									"accentcolor" : [ 0.0, 0.533333, 0.168627, 1.0 ]
								}
,
								"parentstyle" : "",
								"multi" : 0
							}
, 							{
								"name" : "numberGold-1",
								"default" : 								{
									"accentcolor" : [ 0.764706, 0.592157, 0.101961, 1.0 ]
								}
,
								"parentstyle" : "",
								"multi" : 0
							}
, 							{
								"name" : "numberR-1",
								"default" : 								{
									"accentcolor" : [ 0.784314, 0.145098, 0.023529, 1.0 ]
								}
,
								"parentstyle" : "",
								"multi" : 0
							}
 ]
					}
,
					"patching_rect" : [ 1015.377444999999966, 290.456164000000001, 104.0, 22.0 ],
					"saved_object_attributes" : 					{
						"description" : "",
						"digest" : "",
						"globalpatchername" : "",
						"tags" : ""
					}
,
					"text" : "p integers2binary"
				}

			}
, 			{
				"box" : 				{
					"id" : "obj-63",
					"maxclass" : "newobj",
					"numinlets" : 2,
					"numoutlets" : 2,
					"outlettype" : [ "", "" ],
					"patching_rect" : [ 1057.377444922924042, 512.956164002418518, 37.0, 22.0 ],
					"text" : "zl len"
				}

			}
, 			{
				"box" : 				{
					"id" : "obj-57",
					"linecount" : 4,
					"maxclass" : "message",
					"numinlets" : 2,
					"numoutlets" : 1,
					"outlettype" : [ "" ],
					"patching_rect" : [ 1060.969285488128662, 598.295137047767639, 203.0, 62.0 ],
					"text" : "\"01001000\" \"01100101\" \"01101100\" \"01101100\" \"01101111\" \"00100000\" \"01010111\" \"01101111\" \"01110010\" \"01101100\" \"01100100\""
				}

			}
, 			{
				"box" : 				{
					"id" : "obj-50",
					"maxclass" : "newobj",
					"numinlets" : 2,
					"numoutlets" : 2,
					"outlettype" : [ "", "" ],
					"patching_rect" : [ 1015.377444922924042, 556.483179211616516, 61.0, 22.0 ],
					"text" : "zl group 4"
				}

			}
, 			{
				"box" : 				{
					"id" : "obj-43",
					"maxclass" : "newobj",
					"numinlets" : 3,
					"numoutlets" : 1,
					"outlettype" : [ "list" ],
					"patching_rect" : [ 1015.377444922924042, 181.373283386230469, 40.0, 22.0 ],
					"text" : "atoi"
				}

			}
, 			{
				"box" : 				{
					"id" : "obj-37",
					"maxclass" : "message",
					"numinlets" : 2,
					"numoutlets" : 1,
					"outlettype" : [ "" ],
					"patching_rect" : [ 199.421437978744507, 601.553728580474854, 50.0, 22.0 ],
					"text" : "\"9\""
				}

			}
, 			{
				"box" : 				{
					"id" : "obj-35",
					"maxclass" : "number",
					"numinlets" : 1,
					"numoutlets" : 2,
					"outlettype" : [ "", "bang" ],
					"parameter_enable" : 0,
					"patching_rect" : [ 199.421437978744507, 523.553728580474854, 50.0, 22.0 ]
				}

			}
, 			{
				"box" : 				{
					"id" : "obj-33",
					"maxclass" : "newobj",
					"numinlets" : 3,
					"numoutlets" : 1,
					"outlettype" : [ "int" ],
					"patching_rect" : [ 199.421437978744507, 562.553728580474854, 40.0, 22.0 ],
					"text" : "itoa"
				}

			}
, 			{
				"box" : 				{
					"id" : "obj-163",
					"maxclass" : "message",
					"numinlets" : 2,
					"numoutlets" : 1,
					"outlettype" : [ "" ],
					"patching_rect" : [ 1060.969285488128662, 427.892669677734375, 95.234248340129852, 22.0 ],
					"text" : "\"01100100\""
				}

			}
, 			{
				"box" : 				{
					"id" : "obj-196",
					"maxclass" : "newobj",
					"numinlets" : 1,
					"numoutlets" : 1,
					"outlettype" : [ "" ],
					"patching_rect" : [ 1015.377444922924042, 221.456164002418518, 27.0, 22.0 ],
					"text" : "iter"
				}

			}
, 			{
				"box" : 				{
					"id" : "obj-359",
					"maxclass" : "newobj",
					"numinlets" : 2,
					"numoutlets" : 2,
					"outlettype" : [ "signal", "bang" ],
					"patching_rect" : [ 971.746270418167114, 771.853566527366638, 34.0, 22.0 ],
					"text" : "line~"
				}

			}
, 			{
				"box" : 				{
					"id" : "obj-358",
					"maxclass" : "newobj",
					"numinlets" : 2,
					"numoutlets" : 1,
					"outlettype" : [ "" ],
					"patching_rect" : [ 971.746270418167114, 732.853566527366638, 54.0, 22.0 ],
					"text" : "pack 0 5"
				}

			}
, 			{
				"box" : 				{
					"id" : "obj-357",
					"lastchannelcount" : 0,
					"maxclass" : "live.gain~",
					"numinlets" : 2,
					"numoutlets" : 5,
					"outlettype" : [ "signal", "signal", "", "float", "list" ],
					"parameter_enable" : 1,
					"patching_rect" : [ 1057.746270418167114, 661.827576756477356, 47.0, 136.0 ],
					"presentation" : 1,
					"presentation_rect" : [ 237.201765656471252, 13.686926484107971, 47.0, 140.0 ],
					"saved_attribute_attributes" : 					{
						"valueof" : 						{
							"parameter_mmin" : -70.0,
							"parameter_longname" : "live.gain~[1]",
							"parameter_mmax" : 6.0,
							"parameter_shortname" : "live.gain~",
							"parameter_type" : 0,
							"parameter_unitstyle" : 4
						}

					}
,
					"varname" : "live.gain~[1]"
				}

			}
, 			{
				"box" : 				{
					"id" : "obj-356",
					"maxclass" : "newobj",
					"numinlets" : 2,
					"numoutlets" : 1,
					"outlettype" : [ "signal" ],
					"patching_rect" : [ 882.746270418167114, 811.497923135757446, 34.0, 22.0 ],
					"text" : "*~ 0."
				}

			}
, 			{
				"box" : 				{
					"id" : "obj-354",
					"maxclass" : "newobj",
					"numinlets" : 1,
					"numoutlets" : 2,
					"outlettype" : [ "int", "bang" ],
					"patching_rect" : [ 549.746270418167114, 648.853566527366638, 32.0, 22.0 ],
					"text" : "t 1 b"
				}

			}
, 			{
				"box" : 				{
					"id" : "obj-353",
					"maxclass" : "newobj",
					"numinlets" : 1,
					"numoutlets" : 2,
					"outlettype" : [ "int", "bang" ],
					"patching_rect" : [ 471.746270418167114, 648.853566527366638, 32.0, 22.0 ],
					"text" : "t 1 b"
				}

			}
, 			{
				"box" : 				{
					"id" : "obj-352",
					"maxclass" : "message",
					"numinlets" : 2,
					"numoutlets" : 1,
					"outlettype" : [ "" ],
					"patching_rect" : [ 427.746270418167114, 555.853566527366638, 131.0, 22.0 ],
					"text" : "World"
				}

			}
, 			{
				"box" : 				{
					"id" : "obj-28",
					"maxclass" : "button",
					"numinlets" : 1,
					"numoutlets" : 1,
					"outlettype" : [ "bang" ],
					"parameter_enable" : 0,
					"patching_rect" : [ 315.746270418167114, 473.456164002418518, 19.0, 19.0 ]
				}

			}
, 			{
				"box" : 				{
					"fontname" : "Arial",
					"fontsize" : 13.0,
					"id" : "obj-31",
					"maxclass" : "newobj",
					"numinlets" : 2,
					"numoutlets" : 2,
					"outlettype" : [ "", "" ],
					"patching_rect" : [ 315.746270418167114, 512.456164002418518, 44.0, 23.0 ],
					"text" : "zl nth"
				}

			}
, 			{
				"box" : 				{
					"id" : "obj-349",
					"maxclass" : "number",
					"numinlets" : 1,
					"numoutlets" : 2,
					"outlettype" : [ "", "bang" ],
					"parameter_enable" : 0,
					"patching_rect" : [ 438.746270418167114, 438.110060214996338, 50.0, 22.0 ]
				}

			}
, 			{
				"box" : 				{
					"id" : "obj-348",
					"maxclass" : "newobj",
					"numinlets" : 2,
					"numoutlets" : 2,
					"outlettype" : [ "", "" ],
					"patching_rect" : [ 438.746270418167114, 282.110060214996338, 37.0, 22.0 ],
					"text" : "zl.len"
				}

			}
, 			{
				"box" : 				{
					"id" : "obj-342",
					"maxclass" : "number",
					"numinlets" : 1,
					"numoutlets" : 2,
					"outlettype" : [ "", "bang" ],
					"parameter_enable" : 0,
					"patching_rect" : [ 315.746270418167114, 435.507462739944458, 50.0, 22.0 ]
				}

			}
, 			{
				"box" : 				{
					"id" : "obj-339",
					"maxclass" : "newobj",
					"numinlets" : 2,
					"numoutlets" : 1,
					"outlettype" : [ "int" ],
					"patching_rect" : [ 360.746270418167114, 321.110060214996338, 29.5, 22.0 ],
					"text" : "+"
				}

			}
, 			{
				"box" : 				{
					"id" : "obj-337",
					"maxclass" : "newobj",
					"numinlets" : 2,
					"numoutlets" : 1,
					"outlettype" : [ "int" ],
					"patching_rect" : [ 315.746270418167114, 396.507462739944458, 29.5, 22.0 ],
					"text" : "+ 1"
				}

			}
, 			{
				"box" : 				{
					"id" : "obj-338",
					"maxclass" : "number",
					"numinlets" : 1,
					"numoutlets" : 2,
					"outlettype" : [ "", "bang" ],
					"parameter_enable" : 0,
					"patching_rect" : [ 315.746270418167114, 357.507462739944458, 50.0, 22.0 ]
				}

			}
, 			{
				"box" : 				{
					"id" : "obj-325",
					"maxclass" : "message",
					"numinlets" : 2,
					"numoutlets" : 1,
					"outlettype" : [ "" ],
					"patching_rect" : [ 381.996270418167114, 243.110060214996338, 29.5, 22.0 ],
					"text" : "1"
				}

			}
, 			{
				"box" : 				{
					"id" : "obj-322",
					"maxclass" : "newobj",
					"numinlets" : 2,
					"numoutlets" : 2,
					"outlettype" : [ "bang", "" ],
					"patching_rect" : [ 315.746270418167114, 243.110060214996338, 53.0, 22.0 ],
					"text" : "sel word"
				}

			}
, 			{
				"box" : 				{
					"id" : "obj-312",
					"maxclass" : "message",
					"numinlets" : 2,
					"numoutlets" : 1,
					"outlettype" : [ "" ],
					"patching_rect" : [ 315.746270418167114, 282.558761477470398, 29.5, 22.0 ],
					"text" : "0"
				}

			}
, 			{
				"box" : 				{
					"id" : "obj-308",
					"maxclass" : "newobj",
					"numinlets" : 5,
					"numoutlets" : 4,
					"outlettype" : [ "int", "", "", "int" ],
					"patching_rect" : [ 360.746270418167114, 282.110060214996338, 61.0, 22.0 ],
					"text" : "counter"
				}

			}
, 			{
				"box" : 				{
					"id" : "obj-270",
					"maxclass" : "toggle",
					"numinlets" : 1,
					"numoutlets" : 1,
					"outlettype" : [ "int" ],
					"parameter_enable" : 0,
					"patching_rect" : [ 971.746270418167114, 691.853566527366638, 24.0, 24.0 ]
				}

			}
, 			{
				"box" : 				{
					"id" : "obj-257",
					"maxclass" : "newobj",
					"numinlets" : 1,
					"numoutlets" : 1,
					"outlettype" : [ "int" ],
					"patching_rect" : [ 562.746270418167114, 755.802267789840698, 22.0, 22.0 ],
					"text" : "t 0"
				}

			}
, 			{
				"box" : 				{
					"id" : "obj-258",
					"maxclass" : "newobj",
					"numinlets" : 2,
					"numoutlets" : 1,
					"outlettype" : [ "bang" ],
					"patching_rect" : [ 562.746270418167114, 701.802267789840698, 54.0, 22.0 ],
					"text" : "delay 50"
				}

			}
, 			{
				"box" : 				{
					"id" : "obj-256",
					"maxclass" : "newobj",
					"numinlets" : 1,
					"numoutlets" : 1,
					"outlettype" : [ "int" ],
					"patching_rect" : [ 484.746270418167114, 755.802267789840698, 22.0, 22.0 ],
					"text" : "t 0"
				}

			}
, 			{
				"box" : 				{
					"id" : "obj-253",
					"maxclass" : "newobj",
					"numinlets" : 2,
					"numoutlets" : 1,
					"outlettype" : [ "bang" ],
					"patching_rect" : [ 335.746270418167114, 755.802267789840698, 54.0, 22.0 ],
					"text" : "delay 50"
				}

			}
, 			{
				"box" : 				{
					"id" : "obj-252",
					"maxclass" : "newobj",
					"numinlets" : 2,
					"numoutlets" : 1,
					"outlettype" : [ "bang" ],
					"patching_rect" : [ 484.746270418167114, 701.802267789840698, 61.0, 22.0 ],
					"text" : "delay 100"
				}

			}
, 			{
				"box" : 				{
					"id" : "obj-249",
					"maxclass" : "newobj",
					"numinlets" : 2,
					"numoutlets" : 1,
					"outlettype" : [ "bang" ],
					"patching_rect" : [ 393.746270418167114, 648.853566527366638, 61.0, 22.0 ],
					"text" : "delay 100"
				}

			}
, 			{
				"box" : 				{
					"id" : "obj-248",
					"maxclass" : "newobj",
					"numinlets" : 2,
					"numoutlets" : 1,
					"outlettype" : [ "bang" ],
					"patching_rect" : [ 315.746270418167114, 648.853566527366638, 61.0, 22.0 ],
					"text" : "delay 200"
				}

			}
, 			{
				"box" : 				{
					"id" : "obj-247",
					"maxclass" : "newobj",
					"numinlets" : 5,
					"numoutlets" : 5,
					"outlettype" : [ "bang", "bang", "bang", "bang", "" ],
					"patching_rect" : [ 315.746270418167114, 594.853566527366638, 331.0, 22.0 ],
					"text" : "sel word letter 45 46"
				}

			}
, 			{
				"box" : 				{
					"id" : "obj-233",
					"maxclass" : "newobj",
					"numinlets" : 1,
					"numoutlets" : 1,
					"outlettype" : [ "" ],
					"patching_rect" : [ 652.746270418167114, 726.853566527366638, 54.0, 22.0 ],
					"text" : "deferlow"
				}

			}
, 			{
				"box" : 				{
					"id" : "obj-232",
					"maxclass" : "newobj",
					"numinlets" : 2,
					"numoutlets" : 1,
					"outlettype" : [ "" ],
					"patching_rect" : [ 652.746270418167114, 687.853566527366638, 32.0, 22.0 ],
					"text" : "gate"
				}

			}
, 			{
				"box" : 				{
					"id" : "obj-231",
					"maxclass" : "newobj",
					"numinlets" : 2,
					"numoutlets" : 1,
					"outlettype" : [ "int" ],
					"patching_rect" : [ 652.746270418167114, 648.853566527366638, 33.0, 22.0 ],
					"text" : "== 0"
				}

			}
, 			{
				"box" : 				{
					"id" : "obj-224",
					"maxclass" : "newobj",
					"numinlets" : 1,
					"numoutlets" : 2,
					"outlettype" : [ "", "bang" ],
					"patching_rect" : [ 130.566803812980652, 193.590676188468933, 29.5, 22.0 ],
					"text" : "t l b"
				}

			}
, 			{
				"box" : 				{
					"id" : "obj-223",
					"maxclass" : "newobj",
					"numinlets" : 3,
					"numoutlets" : 1,
					"outlettype" : [ "list" ],
					"patching_rect" : [ 130.566803812980652, 154.590676188468933, 40.0, 22.0 ],
					"text" : "atoi"
				}

			}
, 			{
				"box" : 				{
					"id" : "obj-222",
					"maxclass" : "newobj",
					"numinlets" : 2,
					"numoutlets" : 2,
					"outlettype" : [ "bang", "" ],
					"patching_rect" : [ 199.421437978744507, 484.553728580474854, 41.0, 22.0 ],
					"text" : "sel 13"
				}

			}
, 			{
				"box" : 				{
					"id" : "obj-221",
					"maxclass" : "newobj",
					"numinlets" : 0,
					"numoutlets" : 4,
					"outlettype" : [ "int", "int", "int", "int" ],
					"patching_rect" : [ 199.421437978744507, 445.553728580474854, 50.5, 22.0 ],
					"text" : "key"
				}

			}
, 			{
				"box" : 				{
					"id" : "obj-220",
					"linecount" : 2,
					"maxclass" : "comment",
					"numinlets" : 1,
					"numoutlets" : 0,
					"patching_rect" : [ 499.746270418167114, 243.110060214996338, 57.0, 33.0 ],
					"text" : "Buffered \nBeeps:"
				}

			}
, 			{
				"box" : 				{
					"id" : "obj-219",
					"maxclass" : "number",
					"numinlets" : 1,
					"numoutlets" : 2,
					"outlettype" : [ "", "bang" ],
					"parameter_enable" : 0,
					"patching_rect" : [ 484.746270418167114, 282.558761477470398, 50.0, 22.0 ]
				}

			}
, 			{
				"box" : 				{
					"id" : "obj-215",
					"maxclass" : "comment",
					"numinlets" : 1,
					"numoutlets" : 0,
					"patching_rect" : [ 733.746270418167114, 203.456164002418518, 43.0, 20.0 ],
					"presentation" : 1,
					"presentation_rect" : [ 445.451765656471252, 13.738225221633911, 43.0, 20.0 ],
					"text" : "Speed"
				}

			}
, 			{
				"box" : 				{
					"id" : "obj-213",
					"maxclass" : "comment",
					"numinlets" : 1,
					"numoutlets" : 0,
					"patching_rect" : [ 694.746270418167114, 178.404865264892578, 57.0, 20.0 ],
					"presentation" : 1,
					"presentation_rect" : [ 378.451765656471252, 13.686926484107971, 57.0, 20.0 ],
					"text" : "Duration:"
				}

			}
, 			{
				"box" : 				{
					"id" : "obj-211",
					"maxclass" : "newobj",
					"numinlets" : 1,
					"numoutlets" : 1,
					"outlettype" : [ "" ],
					"patching_rect" : [ 681.746270418167114, 151.988078713417053, 83.0, 22.0 ],
					"text" : "loadmess 100"
				}

			}
, 			{
				"box" : 				{
					"id" : "obj-210",
					"maxclass" : "comment",
					"numinlets" : 1,
					"numoutlets" : 0,
					"patching_rect" : [ 866.746270418167114, 200.404865264892578, 126.0, 20.0 ],
					"presentation" : 1,
					"presentation_rect" : [ 378.451765656471252, 133.635627746582031, 126.0, 20.0 ],
					"text" : "pause between words"
				}

			}
, 			{
				"box" : 				{
					"id" : "obj-209",
					"maxclass" : "comment",
					"numinlets" : 1,
					"numoutlets" : 0,
					"patching_rect" : [ 860.746270418167114, 178.404865264892578, 126.0, 20.0 ],
					"presentation" : 1,
					"presentation_rect" : [ 378.451765656471252, 109.686926484107971, 126.0, 20.0 ],
					"text" : "pause between letters"
				}

			}
, 			{
				"box" : 				{
					"id" : "obj-181",
					"maxclass" : "newobj",
					"numinlets" : 2,
					"numoutlets" : 2,
					"outlettype" : [ "", "" ],
					"patching_rect" : [ 315.746270418167114, 193.590676188468933, 54.0, 22.0 ],
					"text" : "zl queue"
				}

			}
, 			{
				"box" : 				{
					"id" : "obj-180",
					"maxclass" : "comment",
					"numinlets" : 1,
					"numoutlets" : 0,
					"patching_rect" : [ 845.246270418167114, 156.404865264892578, 126.0, 20.0 ],
					"presentation" : 1,
					"presentation_rect" : [ 378.451765656471252, 85.686926484107971, 126.0, 20.0 ],
					"text" : "pause between beeps"
				}

			}
, 			{
				"box" : 				{
					"id" : "obj-178",
					"maxclass" : "comment",
					"numinlets" : 1,
					"numoutlets" : 0,
					"patching_rect" : [ 827.746270418167114, 200.404865264892578, 31.0, 20.0 ],
					"presentation" : 1,
					"presentation_rect" : [ 378.451765656471252, 61.686926484107971, 31.0, 20.0 ],
					"text" : "long"
				}

			}
, 			{
				"box" : 				{
					"id" : "obj-177",
					"maxclass" : "comment",
					"numinlets" : 1,
					"numoutlets" : 0,
					"patching_rect" : [ 787.746270418167114, 200.404865264892578, 35.0, 20.0 ],
					"presentation" : 1,
					"presentation_rect" : [ 378.451765656471252, 37.686926484107971, 35.0, 20.0 ],
					"text" : "short"
				}

			}
, 			{
				"box" : 				{
					"id" : "obj-175",
					"ignoreclick" : 1,
					"maxclass" : "number",
					"numinlets" : 1,
					"numoutlets" : 2,
					"outlettype" : [ "", "bang" ],
					"parameter_enable" : 0,
					"patching_rect" : [ 889.746270418167114, 326.456164002418518, 50.0, 22.0 ],
					"presentation" : 1,
					"presentation_rect" : [ 506.451765656471252, 133.686926484107971, 50.0, 22.0 ]
				}

			}
, 			{
				"box" : 				{
					"id" : "obj-174",
					"maxclass" : "newobj",
					"numinlets" : 2,
					"numoutlets" : 1,
					"outlettype" : [ "float" ],
					"patching_rect" : [ 889.746270418167114, 272.456164002418518, 29.5, 22.0 ],
					"text" : "* 2."
				}

			}
, 			{
				"box" : 				{
					"id" : "obj-173",
					"ignoreclick" : 1,
					"maxclass" : "number",
					"numinlets" : 1,
					"numoutlets" : 2,
					"outlettype" : [ "", "bang" ],
					"parameter_enable" : 0,
					"patching_rect" : [ 837.746270418167114, 326.456164002418518, 50.0, 22.0 ],
					"presentation" : 1,
					"presentation_rect" : [ 506.451765656471252, 109.686926484107971, 50.0, 22.0 ]
				}

			}
, 			{
				"box" : 				{
					"id" : "obj-172",
					"ignoreclick" : 1,
					"maxclass" : "number",
					"numinlets" : 1,
					"numoutlets" : 2,
					"outlettype" : [ "", "bang" ],
					"parameter_enable" : 0,
					"patching_rect" : [ 785.746270418167114, 326.456164002418518, 50.0, 22.0 ],
					"presentation" : 1,
					"presentation_rect" : [ 506.451765656471252, 85.686926484107971, 50.0, 22.0 ]
				}

			}
, 			{
				"box" : 				{
					"id" : "obj-171",
					"ignoreclick" : 1,
					"maxclass" : "number",
					"numinlets" : 1,
					"numoutlets" : 2,
					"outlettype" : [ "", "bang" ],
					"parameter_enable" : 0,
					"patching_rect" : [ 733.746270418167114, 326.456164002418518, 50.0, 22.0 ],
					"presentation" : 1,
					"presentation_rect" : [ 506.451765656471252, 61.686926484107971, 50.0, 22.0 ]
				}

			}
, 			{
				"box" : 				{
					"id" : "obj-170",
					"ignoreclick" : 1,
					"maxclass" : "number",
					"numinlets" : 1,
					"numoutlets" : 2,
					"outlettype" : [ "", "bang" ],
					"parameter_enable" : 0,
					"patching_rect" : [ 681.746270418167114, 326.456164002418518, 50.0, 22.0 ],
					"presentation" : 1,
					"presentation_rect" : [ 506.451765656471252, 37.686926484107971, 50.0, 22.0 ]
				}

			}
, 			{
				"box" : 				{
					"id" : "obj-169",
					"maxclass" : "newobj",
					"numinlets" : 2,
					"numoutlets" : 1,
					"outlettype" : [ "float" ],
					"patching_rect" : [ 681.746270418167114, 272.456164002418518, 33.0, 22.0 ],
					"text" : "* 0.5"
				}

			}
, 			{
				"box" : 				{
					"id" : "obj-168",
					"maxclass" : "number",
					"numinlets" : 1,
					"numoutlets" : 2,
					"outlettype" : [ "", "bang" ],
					"parameter_enable" : 0,
					"patching_rect" : [ 681.746270418167114, 203.456164002418518, 50.0, 22.0 ],
					"presentation" : 1,
					"presentation_rect" : [ 506.451765656471252, 13.686926484107971, 50.0, 22.0 ]
				}

			}
, 			{
				"box" : 				{
					"id" : "obj-149",
					"maxclass" : "newobj",
					"numinlets" : 0,
					"numoutlets" : 1,
					"outlettype" : [ "" ],
					"patching_rect" : [ 315.746270418167114, 154.590676188468933, 74.0, 22.0 ],
					"text" : "r __playstop"
				}

			}
, 			{
				"box" : 				{
					"id" : "obj-148",
					"maxclass" : "newobj",
					"numinlets" : 1,
					"numoutlets" : 0,
					"patching_rect" : [ 11.566803812980652, 809.802267789840698, 76.0, 22.0 ],
					"text" : "s __playstop"
				}

			}
, 			{
				"box" : 				{
					"id" : "obj-147",
					"maxclass" : "message",
					"numinlets" : 2,
					"numoutlets" : 1,
					"outlettype" : [ "" ],
					"patching_rect" : [ 11.566803812980652, 223.811814785003662, 35.0, 22.0 ],
					"text" : "clear"
				}

			}
, 			{
				"box" : 				{
					"id" : "obj-138",
					"maxclass" : "newobj",
					"numinlets" : 3,
					"numoutlets" : 3,
					"outlettype" : [ "bang", "bang", "" ],
					"patching_rect" : [ 11.566803812980652, 143.456164002418518, 44.0, 22.0 ],
					"text" : "sel 0 1"
				}

			}
, 			{
				"box" : 				{
					"id" : "obj-137",
					"maxclass" : "live.tab",
					"num_lines_patching" : 1,
					"num_lines_presentation" : 1,
					"numinlets" : 1,
					"numoutlets" : 3,
					"outlettype" : [ "", "", "float" ],
					"parameter_enable" : 1,
					"patching_rect" : [ 11.566803812980652, 103.213380932807922, 100.0, 20.0 ],
					"saved_attribute_attributes" : 					{
						"valueof" : 						{
							"parameter_longname" : "live.tab",
							"parameter_mmax" : 1,
							"parameter_shortname" : "live.tab",
							"parameter_enum" : [ "STOP", "PLAY" ],
							"parameter_type" : 2,
							"parameter_unitstyle" : 0
						}

					}
,
					"varname" : "live.tab"
				}

			}
, 			{
				"box" : 				{
					"dontreplace" : 1,
					"id" : "obj-128",
					"maxclass" : "message",
					"numinlets" : 2,
					"numoutlets" : 1,
					"outlettype" : [ "" ],
					"patching_rect" : [ 130.566803812980652, 108.456164002418518, 931.0, 22.0 ],
					"text" : "Hello World"
				}

			}
, 			{
				"box" : 				{
					"id" : "obj-126",
					"maxclass" : "button",
					"numinlets" : 1,
					"numoutlets" : 1,
					"outlettype" : [ "bang" ],
					"parameter_enable" : 0,
					"patching_rect" : [ 130.566803812980652, 69.456164002418518, 24.0, 24.0 ],
					"presentation" : 1,
					"presentation_rect" : [ 172.701765656471252, 46.186926484107971, 24.0, 24.0 ]
				}

			}
, 			{
				"box" : 				{
					"id" : "obj-124",
					"maxclass" : "newobj",
					"numinlets" : 2,
					"numoutlets" : 2,
					"outlettype" : [ "", "" ],
					"patching_rect" : [ 161.566803812980652, 69.456164002418518, 59.0, 22.0 ],
					"text" : "route text"
				}

			}
, 			{
				"box" : 				{
					"id" : "obj-122",
					"maxclass" : "textedit",
					"numinlets" : 1,
					"numoutlets" : 4,
					"outlettype" : [ "", "int", "", "" ],
					"parameter_enable" : 0,
					"patching_rect" : [ 161.566803812980652, 7.19020664691925, 217.021275758743286, 47.531914710998535 ],
					"presentation" : 1,
					"presentation_rect" : [ 18.180489897727966, 82.155011773109436, 217.021275758743286, 47.531914710998535 ],
					"text" : "Hello World"
				}

			}
, 			{
				"box" : 				{
					"id" : "obj-12",
					"maxclass" : "ezdac~",
					"numinlets" : 2,
					"numoutlets" : 0,
					"patching_rect" : [ 1057.746270418167114, 814.827576756477356, 33.0, 33.0 ],
					"presentation" : 1,
					"presentation_rect" : [ 202.201765656471252, 41.686926484107971, 33.0, 33.0 ]
				}

			}
 ],
		"lines" : [ 			{
				"patchline" : 				{
					"destination" : [ "obj-18", 0 ],
					"midpoints" : [ 21.066803812980652, 57.83477246761322, 803.996270418167114, 57.83477246761322 ],
					"order" : 0,
					"source" : [ "obj-1", 0 ]
				}

			}
, 			{
				"patchline" : 				{
					"destination" : [ "obj-2", 0 ],
					"order" : 1,
					"source" : [ "obj-1", 0 ]
				}

			}
, 			{
				"patchline" : 				{
					"destination" : [ "obj-137", 0 ],
					"source" : [ "obj-10", 0 ]
				}

			}
, 			{
				"patchline" : 				{
					"destination" : [ "obj-124", 0 ],
					"source" : [ "obj-122", 0 ]
				}

			}
, 			{
				"patchline" : 				{
					"destination" : [ "obj-128", 1 ],
					"midpoints" : [ 171.066803812980652, 99.456164002418518, 1052.066803812980652, 99.456164002418518 ],
					"source" : [ "obj-124", 0 ]
				}

			}
, 			{
				"patchline" : 				{
					"destination" : [ "obj-128", 0 ],
					"source" : [ "obj-126", 0 ]
				}

			}
, 			{
				"patchline" : 				{
					"destination" : [ "obj-223", 0 ],
					"order" : 3,
					"source" : [ "obj-128", 0 ]
				}

			}
, 			{
				"patchline" : 				{
					"destination" : [ "obj-31", 0 ],
					"midpoints" : [ 140.066803812980652, 139.507462739944458, 301.746270418167114, 139.507462739944458, 301.746270418167114, 505.507462739944458, 325.246270418167114, 505.507462739944458 ],
					"order" : 2,
					"source" : [ "obj-128", 0 ]
				}

			}
, 			{
				"patchline" : 				{
					"destination" : [ "obj-348", 0 ],
					"midpoints" : [ 140.066803812980652, 139.507462739944458, 448.246270418167114, 139.507462739944458 ],
					"order" : 1,
					"source" : [ "obj-128", 0 ]
				}

			}
, 			{
				"patchline" : 				{
					"destination" : [ "obj-43", 0 ],
					"midpoints" : [ 140.066803812980652, 141.0, 1024.877444922924042, 141.0 ],
					"order" : 0,
					"source" : [ "obj-128", 0 ]
				}

			}
, 			{
				"patchline" : 				{
					"destination" : [ "obj-148", 0 ],
					"midpoints" : [ 140.066803812980652, 765.0, 21.066803812980652, 765.0 ],
					"source" : [ "obj-13", 0 ]
				}

			}
, 			{
				"patchline" : 				{
					"destination" : [ "obj-138", 0 ],
					"midpoints" : [ 21.066803812980652, 124.507462739944458, 21.066803812980652, 124.507462739944458 ],
					"source" : [ "obj-137", 0 ]
				}

			}
, 			{
				"patchline" : 				{
					"destination" : [ "obj-147", 0 ],
					"source" : [ "obj-138", 0 ]
				}

			}
, 			{
				"patchline" : 				{
					"destination" : [ "obj-148", 0 ],
					"midpoints" : [ 33.566803812980652, 210.0, 57.0, 210.0, 57.0, 795.0, 21.066803812980652, 795.0 ],
					"source" : [ "obj-138", 1 ]
				}

			}
, 			{
				"patchline" : 				{
					"destination" : [ "obj-148", 0 ],
					"midpoints" : [ 21.066803812980652, 766.507462739944458, 21.066803812980652, 766.507462739944458 ],
					"source" : [ "obj-147", 0 ]
				}

			}
, 			{
				"patchline" : 				{
					"destination" : [ "obj-181", 0 ],
					"midpoints" : [ 325.246270418167114, 178.507462739944458, 325.246270418167114, 178.507462739944458 ],
					"source" : [ "obj-149", 0 ]
				}

			}
, 			{
				"patchline" : 				{
					"destination" : [ "obj-14", 0 ],
					"source" : [ "obj-15", 0 ]
				}

			}
, 			{
				"patchline" : 				{
					"destination" : [ "obj-169", 0 ],
					"midpoints" : [ 691.246270418167114, 226.456164002418518, 691.246270418167114, 226.456164002418518 ],
					"order" : 3,
					"source" : [ "obj-168", 0 ]
				}

			}
, 			{
				"patchline" : 				{
					"destination" : [ "obj-171", 0 ],
					"midpoints" : [ 691.246270418167114, 259.456164002418518, 743.246270418167114, 259.456164002418518 ],
					"order" : 2,
					"source" : [ "obj-168", 0 ]
				}

			}
, 			{
				"patchline" : 				{
					"destination" : [ "obj-173", 0 ],
					"midpoints" : [ 691.246270418167114, 259.456164002418518, 847.246270418167114, 259.456164002418518 ],
					"order" : 1,
					"source" : [ "obj-168", 0 ]
				}

			}
, 			{
				"patchline" : 				{
					"destination" : [ "obj-174", 0 ],
					"midpoints" : [ 691.246270418167114, 259.456164002418518, 899.246270418167114, 259.456164002418518 ],
					"order" : 0,
					"source" : [ "obj-168", 0 ]
				}

			}
, 			{
				"patchline" : 				{
					"destination" : [ "obj-170", 0 ],
					"midpoints" : [ 691.246270418167114, 295.456164002418518, 691.246270418167114, 295.456164002418518 ],
					"order" : 1,
					"source" : [ "obj-169", 0 ]
				}

			}
, 			{
				"patchline" : 				{
					"destination" : [ "obj-172", 0 ],
					"midpoints" : [ 691.246270418167114, 313.456164002418518, 795.246270418167114, 313.456164002418518 ],
					"order" : 0,
					"source" : [ "obj-169", 0 ]
				}

			}
, 			{
				"patchline" : 				{
					"destination" : [ "obj-258", 1 ],
					"midpoints" : [ 691.246270418167114, 633.0, 607.246270418167114, 633.0 ],
					"source" : [ "obj-170", 0 ]
				}

			}
, 			{
				"patchline" : 				{
					"destination" : [ "obj-252", 1 ],
					"midpoints" : [ 743.246270418167114, 633.0, 536.246270418167114, 633.0 ],
					"source" : [ "obj-171", 0 ]
				}

			}
, 			{
				"patchline" : 				{
					"destination" : [ "obj-253", 1 ],
					"midpoints" : [ 795.246270418167114, 600.0, 657.0, 600.0, 657.0, 633.0, 627.0, 633.0, 627.0, 741.0, 380.246270418167114, 741.0 ],
					"source" : [ "obj-172", 0 ]
				}

			}
, 			{
				"patchline" : 				{
					"destination" : [ "obj-249", 1 ],
					"midpoints" : [ 847.246270418167114, 600.0, 657.0, 600.0, 657.0, 633.0, 445.246270418167114, 633.0 ],
					"source" : [ "obj-173", 0 ]
				}

			}
, 			{
				"patchline" : 				{
					"destination" : [ "obj-175", 0 ],
					"midpoints" : [ 899.246270418167114, 295.456164002418518, 899.246270418167114, 295.456164002418518 ],
					"source" : [ "obj-174", 0 ]
				}

			}
, 			{
				"patchline" : 				{
					"destination" : [ "obj-248", 1 ],
					"midpoints" : [ 899.246270418167114, 600.0, 657.0, 600.0, 657.0, 633.0, 367.246270418167114, 633.0 ],
					"source" : [ "obj-175", 0 ]
				}

			}
, 			{
				"patchline" : 				{
					"destination" : [ "obj-128", 1 ],
					"midpoints" : [ 803.996270418167114, 99.456164002418518, 1052.066803812980652, 99.456164002418518 ],
					"source" : [ "obj-18", 0 ]
				}

			}
, 			{
				"patchline" : 				{
					"destination" : [ "obj-219", 0 ],
					"midpoints" : [ 360.246270418167114, 229.507462739944458, 484.746270418167114, 229.507462739944458, 484.746270418167114, 277.507462739944458, 494.246270418167114, 277.507462739944458 ],
					"order" : 1,
					"source" : [ "obj-181", 1 ]
				}

			}
, 			{
				"patchline" : 				{
					"destination" : [ "obj-231", 0 ],
					"midpoints" : [ 360.246270418167114, 228.0, 662.246270418167114, 228.0 ],
					"order" : 0,
					"source" : [ "obj-181", 1 ]
				}

			}
, 			{
				"patchline" : 				{
					"destination" : [ "obj-247", 0 ],
					"midpoints" : [ 325.246270418167114, 229.507462739944458, 301.746270418167114, 229.507462739944458, 301.746270418167114, 550.507462739944458, 325.246270418167114, 550.507462739944458 ],
					"order" : 0,
					"source" : [ "obj-181", 0 ]
				}

			}
, 			{
				"patchline" : 				{
					"destination" : [ "obj-322", 0 ],
					"midpoints" : [ 325.246270418167114, 217.507462739944458, 325.246270418167114, 217.507462739944458 ],
					"order" : 1,
					"source" : [ "obj-181", 0 ]
				}

			}
, 			{
				"patchline" : 				{
					"destination" : [ "obj-20", 0 ],
					"source" : [ "obj-19", 0 ]
				}

			}
, 			{
				"patchline" : 				{
					"destination" : [ "obj-8", 0 ],
					"source" : [ "obj-196", 0 ]
				}

			}
, 			{
				"patchline" : 				{
					"destination" : [ "obj-137", 0 ],
					"source" : [ "obj-2", 0 ]
				}

			}
, 			{
				"patchline" : 				{
					"destination" : [ "obj-34", 0 ],
					"source" : [ "obj-20", 0 ]
				}

			}
, 			{
				"patchline" : 				{
					"destination" : [ "obj-19", 0 ],
					"order" : 0,
					"source" : [ "obj-21", 0 ]
				}

			}
, 			{
				"patchline" : 				{
					"destination" : [ "obj-24", 0 ],
					"order" : 1,
					"source" : [ "obj-21", 0 ]
				}

			}
, 			{
				"patchline" : 				{
					"destination" : [ "obj-168", 0 ],
					"source" : [ "obj-211", 0 ]
				}

			}
, 			{
				"patchline" : 				{
					"destination" : [ "obj-222", 0 ],
					"source" : [ "obj-221", 0 ]
				}

			}
, 			{
				"patchline" : 				{
					"destination" : [ "obj-224", 0 ],
					"source" : [ "obj-223", 0 ]
				}

			}
, 			{
				"patchline" : 				{
					"destination" : [ "obj-13", 0 ],
					"source" : [ "obj-224", 0 ]
				}

			}
, 			{
				"patchline" : 				{
					"destination" : [ "obj-232", 1 ],
					"midpoints" : [ 150.566803812980652, 223.507462739944458, 301.746270418167114, 223.507462739944458, 301.746270418167114, 652.507462739944458, 675.246270418167114, 652.507462739944458 ],
					"order" : 0,
					"source" : [ "obj-224", 1 ]
				}

			}
, 			{
				"patchline" : 				{
					"destination" : [ "obj-312", 0 ],
					"midpoints" : [ 150.566803812980652, 223.507462739944458, 301.746270418167114, 223.507462739944458, 301.746270418167114, 277.507462739944458, 325.246270418167114, 277.507462739944458 ],
					"order" : 2,
					"source" : [ "obj-224", 1 ]
				}

			}
, 			{
				"patchline" : 				{
					"destination" : [ "obj-325", 0 ],
					"midpoints" : [ 150.566803812980652, 223.507462739944458, 301.746270418167114, 223.507462739944458, 301.746270418167114, 229.507462739944458, 391.496270418167114, 229.507462739944458 ],
					"order" : 1,
					"source" : [ "obj-224", 1 ]
				}

			}
, 			{
				"patchline" : 				{
					"destination" : [ "obj-5", 0 ],
					"midpoints" : [ 815.996270418167114, 795.0, 867.0, 795.0, 867.0, 768.0, 892.246270418167114, 768.0 ],
					"source" : [ "obj-23", 0 ]
				}

			}
, 			{
				"patchline" : 				{
					"destination" : [ "obj-232", 0 ],
					"midpoints" : [ 662.246270418167114, 671.904865264892578, 662.246270418167114, 671.904865264892578 ],
					"source" : [ "obj-231", 0 ]
				}

			}
, 			{
				"patchline" : 				{
					"destination" : [ "obj-233", 0 ],
					"midpoints" : [ 662.246270418167114, 710.904865264892578, 662.246270418167114, 710.904865264892578 ],
					"source" : [ "obj-232", 0 ]
				}

			}
, 			{
				"patchline" : 				{
					"destination" : [ "obj-148", 0 ],
					"midpoints" : [ 662.246270418167114, 796.507462739944458, 21.066803812980652, 796.507462739944458 ],
					"source" : [ "obj-233", 0 ]
				}

			}
, 			{
				"patchline" : 				{
					"destination" : [ "obj-6", 0 ],
					"source" : [ "obj-24", 0 ]
				}

			}
, 			{
				"patchline" : 				{
					"destination" : [ "obj-248", 0 ],
					"midpoints" : [ 325.246270418167114, 618.0, 325.246270418167114, 618.0 ],
					"source" : [ "obj-247", 0 ]
				}

			}
, 			{
				"patchline" : 				{
					"destination" : [ "obj-249", 0 ],
					"midpoints" : [ 403.246270418167114, 618.0, 403.246270418167114, 618.0 ],
					"source" : [ "obj-247", 1 ]
				}

			}
, 			{
				"patchline" : 				{
					"destination" : [ "obj-353", 0 ],
					"midpoints" : [ 481.246270418167114, 618.0, 481.246270418167114, 618.0 ],
					"source" : [ "obj-247", 2 ]
				}

			}
, 			{
				"patchline" : 				{
					"destination" : [ "obj-354", 0 ],
					"midpoints" : [ 559.246270418167114, 618.0, 559.246270418167114, 618.0 ],
					"source" : [ "obj-247", 3 ]
				}

			}
, 			{
				"patchline" : 				{
					"destination" : [ "obj-148", 0 ],
					"midpoints" : [ 325.246270418167114, 796.507462739944458, 21.066803812980652, 796.507462739944458 ],
					"source" : [ "obj-248", 0 ]
				}

			}
, 			{
				"patchline" : 				{
					"destination" : [ "obj-148", 0 ],
					"midpoints" : [ 403.246270418167114, 796.507462739944458, 21.066803812980652, 796.507462739944458 ],
					"source" : [ "obj-249", 0 ]
				}

			}
, 			{
				"patchline" : 				{
					"destination" : [ "obj-253", 0 ],
					"midpoints" : [ 494.246270418167114, 742.507462739944458, 345.246270418167114, 742.507462739944458 ],
					"order" : 1,
					"source" : [ "obj-252", 0 ]
				}

			}
, 			{
				"patchline" : 				{
					"destination" : [ "obj-256", 0 ],
					"midpoints" : [ 494.246270418167114, 724.507462739944458, 494.246270418167114, 724.507462739944458 ],
					"order" : 0,
					"source" : [ "obj-252", 0 ]
				}

			}
, 			{
				"patchline" : 				{
					"destination" : [ "obj-148", 0 ],
					"midpoints" : [ 345.246270418167114, 796.507462739944458, 21.066803812980652, 796.507462739944458 ],
					"source" : [ "obj-253", 0 ]
				}

			}
, 			{
				"patchline" : 				{
					"destination" : [ "obj-270", 0 ],
					"midpoints" : [ 494.246270418167114, 789.0, 792.0, 789.0, 792.0, 648.0, 879.0, 648.0, 879.0, 639.0, 981.246270418167114, 639.0 ],
					"source" : [ "obj-256", 0 ]
				}

			}
, 			{
				"patchline" : 				{
					"destination" : [ "obj-270", 0 ],
					"midpoints" : [ 572.246270418167114, 780.0, 792.0, 780.0, 792.0, 648.0, 879.0, 648.0, 879.0, 639.0, 981.246270418167114, 639.0 ],
					"source" : [ "obj-257", 0 ]
				}

			}
, 			{
				"patchline" : 				{
					"destination" : [ "obj-253", 0 ],
					"midpoints" : [ 572.246270418167114, 742.507462739944458, 345.246270418167114, 742.507462739944458 ],
					"order" : 1,
					"source" : [ "obj-258", 0 ]
				}

			}
, 			{
				"patchline" : 				{
					"destination" : [ "obj-257", 0 ],
					"midpoints" : [ 572.246270418167114, 724.507462739944458, 572.246270418167114, 724.507462739944458 ],
					"order" : 0,
					"source" : [ "obj-258", 0 ]
				}

			}
, 			{
				"patchline" : 				{
					"destination" : [ "obj-358", 0 ],
					"source" : [ "obj-270", 0 ]
				}

			}
, 			{
				"patchline" : 				{
					"destination" : [ "obj-31", 0 ],
					"midpoints" : [ 325.246270418167114, 493.507462739944458, 325.246270418167114, 493.507462739944458 ],
					"source" : [ "obj-28", 0 ]
				}

			}
, 			{
				"patchline" : 				{
					"destination" : [ "obj-339", 0 ],
					"midpoints" : [ 370.246270418167114, 304.507462739944458, 370.246270418167114, 304.507462739944458 ],
					"source" : [ "obj-308", 0 ]
				}

			}
, 			{
				"patchline" : 				{
					"destination" : [ "obj-15", 0 ],
					"midpoints" : [ 325.246270418167114, 546.0, 414.0, 546.0, 414.0, 471.0, 437.246270418167114, 471.0 ],
					"order" : 1,
					"source" : [ "obj-31", 0 ]
				}

			}
, 			{
				"patchline" : 				{
					"destination" : [ "obj-352", 1 ],
					"midpoints" : [ 325.246270418167114, 549.0, 549.246270418167114, 549.0 ],
					"order" : 0,
					"source" : [ "obj-31", 0 ]
				}

			}
, 			{
				"patchline" : 				{
					"destination" : [ "obj-338", 0 ],
					"midpoints" : [ 325.246270418167114, 307.507462739944458, 325.246270418167114, 307.507462739944458 ],
					"source" : [ "obj-312", 0 ]
				}

			}
, 			{
				"patchline" : 				{
					"destination" : [ "obj-308", 0 ],
					"midpoints" : [ 325.246270418167114, 277.507462739944458, 370.246270418167114, 277.507462739944458 ],
					"source" : [ "obj-322", 0 ]
				}

			}
, 			{
				"patchline" : 				{
					"destination" : [ "obj-308", 2 ],
					"midpoints" : [ 391.496270418167114, 265.507462739944458, 391.246270418167114, 265.507462739944458 ],
					"source" : [ "obj-325", 0 ]
				}

			}
, 			{
				"patchline" : 				{
					"destination" : [ "obj-37", 1 ],
					"source" : [ "obj-33", 0 ]
				}

			}
, 			{
				"patchline" : 				{
					"destination" : [ "obj-342", 0 ],
					"midpoints" : [ 325.246270418167114, 421.507462739944458, 325.246270418167114, 421.507462739944458 ],
					"order" : 1,
					"source" : [ "obj-337", 0 ]
				}

			}
, 			{
				"patchline" : 				{
					"destination" : [ "obj-9", 0 ],
					"midpoints" : [ 325.246270418167114, 427.808761477470398, 545.5, 427.808761477470398 ],
					"order" : 0,
					"source" : [ "obj-337", 0 ]
				}

			}
, 			{
				"patchline" : 				{
					"destination" : [ "obj-337", 0 ],
					"midpoints" : [ 325.246270418167114, 382.507462739944458, 325.246270418167114, 382.507462739944458 ],
					"source" : [ "obj-338", 0 ]
				}

			}
, 			{
				"patchline" : 				{
					"destination" : [ "obj-338", 0 ],
					"midpoints" : [ 370.246270418167114, 349.808761477470398, 325.246270418167114, 349.808761477470398 ],
					"source" : [ "obj-339", 0 ]
				}

			}
, 			{
				"patchline" : 				{
					"destination" : [ "obj-5", 4 ],
					"source" : [ "obj-34", 3 ]
				}

			}
, 			{
				"patchline" : 				{
					"destination" : [ "obj-5", 3 ],
					"source" : [ "obj-34", 2 ]
				}

			}
, 			{
				"patchline" : 				{
					"destination" : [ "obj-5", 2 ],
					"source" : [ "obj-34", 1 ]
				}

			}
, 			{
				"patchline" : 				{
					"destination" : [ "obj-5", 1 ],
					"source" : [ "obj-34", 0 ]
				}

			}
, 			{
				"patchline" : 				{
					"destination" : [ "obj-28", 0 ],
					"midpoints" : [ 325.246270418167114, 460.507462739944458, 325.246270418167114, 460.507462739944458 ],
					"order" : 1,
					"source" : [ "obj-342", 0 ]
				}

			}
, 			{
				"patchline" : 				{
					"destination" : [ "obj-31", 1 ],
					"midpoints" : [ 325.246270418167114, 469.507462739944458, 350.246270418167114, 469.507462739944458 ],
					"order" : 0,
					"source" : [ "obj-342", 0 ]
				}

			}
, 			{
				"patchline" : 				{
					"destination" : [ "obj-349", 0 ],
					"midpoints" : [ 448.246270418167114, 304.507462739944458, 448.246270418167114, 304.507462739944458 ],
					"order" : 1,
					"source" : [ "obj-348", 0 ]
				}

			}
, 			{
				"patchline" : 				{
					"destination" : [ "obj-9", 2 ],
					"midpoints" : [ 448.246270418167114, 370.610060214996338, 579.5, 370.610060214996338 ],
					"order" : 0,
					"source" : [ "obj-348", 0 ]
				}

			}
, 			{
				"patchline" : 				{
					"destination" : [ "obj-33", 0 ],
					"source" : [ "obj-35", 0 ]
				}

			}
, 			{
				"patchline" : 				{
					"destination" : [ "obj-252", 0 ],
					"midpoints" : [ 494.246270418167114, 673.507462739944458, 494.246270418167114, 673.507462739944458 ],
					"source" : [ "obj-353", 1 ]
				}

			}
, 			{
				"patchline" : 				{
					"destination" : [ "obj-270", 0 ],
					"midpoints" : [ 481.246270418167114, 681.0, 639.0, 681.0, 639.0, 627.0, 792.0, 627.0, 792.0, 600.0, 981.246270418167114, 600.0 ],
					"source" : [ "obj-353", 0 ]
				}

			}
, 			{
				"patchline" : 				{
					"destination" : [ "obj-258", 0 ],
					"midpoints" : [ 572.246270418167114, 673.507462739944458, 572.246270418167114, 673.507462739944458 ],
					"source" : [ "obj-354", 1 ]
				}

			}
, 			{
				"patchline" : 				{
					"destination" : [ "obj-270", 0 ],
					"midpoints" : [ 559.246270418167114, 681.0, 639.0, 681.0, 639.0, 627.0, 792.0, 627.0, 792.0, 600.0, 981.246270418167114, 600.0 ],
					"source" : [ "obj-354", 0 ]
				}

			}
, 			{
				"patchline" : 				{
					"destination" : [ "obj-357", 1 ],
					"midpoints" : [ 892.246270418167114, 843.0, 1044.0, 843.0, 1044.0, 657.0, 1095.246270418167114, 657.0 ],
					"order" : 0,
					"source" : [ "obj-356", 0 ]
				}

			}
, 			{
				"patchline" : 				{
					"destination" : [ "obj-357", 0 ],
					"midpoints" : [ 892.246270418167114, 843.0, 1044.0, 843.0, 1044.0, 657.0, 1067.246270418167114, 657.0 ],
					"order" : 1,
					"source" : [ "obj-356", 0 ]
				}

			}
, 			{
				"patchline" : 				{
					"destination" : [ "obj-12", 1 ],
					"midpoints" : [ 1074.246270418167114, 807.0, 1081.246270418167114, 807.0 ],
					"source" : [ "obj-357", 1 ]
				}

			}
, 			{
				"patchline" : 				{
					"destination" : [ "obj-12", 0 ],
					"midpoints" : [ 1067.246270418167114, 810.0, 1067.246270418167114, 810.0 ],
					"source" : [ "obj-357", 0 ]
				}

			}
, 			{
				"patchline" : 				{
					"destination" : [ "obj-359", 0 ],
					"source" : [ "obj-358", 0 ]
				}

			}
, 			{
				"patchline" : 				{
					"destination" : [ "obj-356", 1 ],
					"midpoints" : [ 981.246270418167114, 807.0, 907.246270418167114, 807.0 ],
					"source" : [ "obj-359", 0 ]
				}

			}
, 			{
				"patchline" : 				{
					"destination" : [ "obj-7", 0 ],
					"source" : [ "obj-4", 0 ]
				}

			}
, 			{
				"patchline" : 				{
					"destination" : [ "obj-196", 0 ],
					"order" : 1,
					"source" : [ "obj-43", 0 ]
				}

			}
, 			{
				"patchline" : 				{
					"destination" : [ "obj-63", 0 ],
					"midpoints" : [ 1024.877444922924042, 204.0, 1002.0, 204.0, 1002.0, 498.0, 1066.877444922924042, 498.0 ],
					"order" : 0,
					"source" : [ "obj-43", 0 ]
				}

			}
, 			{
				"patchline" : 				{
					"destination" : [ "obj-356", 0 ],
					"source" : [ "obj-5", 0 ]
				}

			}
, 			{
				"patchline" : 				{
					"destination" : [ "obj-57", 1 ],
					"source" : [ "obj-50", 0 ]
				}

			}
, 			{
				"patchline" : 				{
					"destination" : [ "obj-23", 0 ],
					"source" : [ "obj-6", 0 ]
				}

			}
, 			{
				"patchline" : 				{
					"destination" : [ "obj-17", 1 ],
					"order" : 0,
					"source" : [ "obj-63", 0 ]
				}

			}
, 			{
				"patchline" : 				{
					"destination" : [ "obj-50", 1 ],
					"order" : 1,
					"source" : [ "obj-63", 0 ]
				}

			}
, 			{
				"patchline" : 				{
					"destination" : [ "obj-163", 1 ],
					"order" : 0,
					"source" : [ "obj-8", 0 ]
				}

			}
, 			{
				"patchline" : 				{
					"destination" : [ "obj-50", 0 ],
					"order" : 1,
					"source" : [ "obj-8", 0 ]
				}

			}
, 			{
				"patchline" : 				{
					"destination" : [ "obj-4", 0 ],
					"source" : [ "obj-9", 0 ]
				}

			}
 ],
		"parameters" : 		{
			"obj-357" : [ "live.gain~[1]", "live.gain~", 0 ],
			"obj-137" : [ "live.tab", "live.tab", 0 ],
			"parameterbanks" : 			{

			}

		}
,
		"dependency_cache" : [ 			{
				"name" : "__spacedel.js",
				"bootpath" : "~/Documents/Max 8/Projects/Morse_Code/patchers",
				"patcherrelativepath" : ".",
				"type" : "TEXT",
				"implicit" : 1
			}
 ],
		"autosave" : 0,
		"styles" : [ 			{
				"name" : "AudioStatus_Menu",
				"default" : 				{
					"bgfillcolor" : 					{
						"type" : "color",
						"color" : [ 0.294118, 0.313726, 0.337255, 1 ],
						"color1" : [ 0.454902, 0.462745, 0.482353, 0.0 ],
						"color2" : [ 0.290196, 0.309804, 0.301961, 1.0 ],
						"angle" : 270.0,
						"proportion" : 0.39,
						"autogradient" : 0
					}

				}
,
				"parentstyle" : "",
				"multi" : 0
			}
, 			{
				"name" : "newobjCyan-1",
				"default" : 				{
					"accentcolor" : [ 0.022882, 0.848654, 0.85423, 1.0 ]
				}
,
				"parentstyle" : "",
				"multi" : 0
			}
, 			{
				"name" : "newobjMagenta-1",
				"default" : 				{
					"accentcolor" : [ 0.840663, 0.060168, 0.769195, 1.0 ]
				}
,
				"parentstyle" : "",
				"multi" : 0
			}
, 			{
				"name" : "newobjRed-1",
				"default" : 				{
					"accentcolor" : [ 0.784314, 0.145098, 0.023529, 1.0 ]
				}
,
				"parentstyle" : "",
				"multi" : 0
			}
, 			{
				"name" : "newobjYellow-1",
				"default" : 				{
					"fontsize" : [ 12.059008 ],
					"accentcolor" : [ 0.82517, 0.78181, 0.059545, 1.0 ]
				}
,
				"parentstyle" : "",
				"multi" : 0
			}
, 			{
				"name" : "numberB-1",
				"default" : 				{
					"accentcolor" : [ 0.011765, 0.396078, 0.752941, 1.0 ]
				}
,
				"parentstyle" : "",
				"multi" : 0
			}
, 			{
				"name" : "numberG-1",
				"default" : 				{
					"accentcolor" : [ 0.0, 0.533333, 0.168627, 1.0 ]
				}
,
				"parentstyle" : "",
				"multi" : 0
			}
, 			{
				"name" : "numberGold-1",
				"default" : 				{
					"accentcolor" : [ 0.764706, 0.592157, 0.101961, 1.0 ]
				}
,
				"parentstyle" : "",
				"multi" : 0
			}
, 			{
				"name" : "numberR-1",
				"default" : 				{
					"accentcolor" : [ 0.784314, 0.145098, 0.023529, 1.0 ]
				}
,
				"parentstyle" : "",
				"multi" : 0
			}
 ]
	}

}
